<?xml version="1.0" encoding="UTF-8" standalone="no"?>
<svg
   xmlns:dc="http://purl.org/dc/elements/1.1/"
   xmlns:cc="http://creativecommons.org/ns#"
   xmlns:rdf="http://www.w3.org/1999/02/22-rdf-syntax-ns#"
   xmlns:svg="http://www.w3.org/2000/svg"
   xmlns="http://www.w3.org/2000/svg"
   xmlns:sodipodi="http://sodipodi.sourceforge.net/DTD/sodipodi-0.dtd"
   xmlns:inkscape="http://www.inkscape.org/namespaces/inkscape"
   id="svg2"
   sodipodi:version="0.32"
   inkscape:version="0.48.0 r9654"
   sodipodi:docname="Blank_US_Map.svg"
   viewBox="0 0 1392 880"
   inkscape:output_extension="org.inkscape.output.svg.inkscape"
   version="1.1">
  <metadata
     id="metadata62">
    <rdf:RDF>
      <cc:Work
         rdf:about="">
        <dc:format>image/svg+xml</dc:format>
        <dc:type
           rdf:resource="http://purl.org/dc/dcmitype/StillImage" />
      </cc:Work>
    </rdf:RDF>
  </metadata>
  <defs
     id="defs60">
    <inkscape:perspective
       sodipodi:type="inkscape:persp3d"
       inkscape:vp_x="0 : 296.5 : 1"
       inkscape:vp_y="0 : 1000 : 0"
       inkscape:vp_z="959 : 296.5 : 1"
       inkscape:persp3d-origin="479.5 : 197.66667 : 1"
       id="perspective64" />
  </defs>
  <sodipodi:namedview
     inkscape:window-height="814"
     inkscape:window-width="1152"
     inkscape:pageshadow="2"
     inkscape:pageopacity="0.0"
     guidetolerance="10.0"
     gridtolerance="10.0"
     objecttolerance="10.0"
     borderopacity="1.0"
     bordercolor="#666666"
     pagecolor="#ffffff"
     id="base"
     showgrid="false"
     inkscape:zoom="0.70710678"
     inkscape:cx="487.26263"
     inkscape:cy="438.46873"
     inkscape:window-x="219"
     inkscape:window-y="79"
     inkscape:current-layer="svg2"
     showguides="true"
     inkscape:guide-bbox="true"
     fit-margin-top="0"
     fit-margin-left="0"
     fit-margin-right="0"
     fit-margin-bottom="0"
     inkscape:window-maximized="0" />
  <path
     fill="#d3d3d3" style="stroke:#ffffff;stroke-width:1.125;stroke-miterlimit:4;stroke-opacity:1;stroke-dasharray:none"
     class="location"
     id="Hawaii"
     d="m 349.63126,768.16826 2.90989,-5.33483 3.3949,-0.48498 0.48498,1.21245 -3.1524,4.60736 -3.63737,0 z m 15.27699,-5.57732 9.2147,3.87986 3.15238,-0.48498 2.42492,-5.81981 -0.96996,-5.09232 -6.3048,-0.72747 -6.0623,2.66741 -1.45494,5.57731 z m 46.07344,15.0345 5.57731,8.24471 3.63737,-0.48498 1.69745,-0.72747 2.18242,1.93993 5.57732,-0.24249 1.45495,-2.18242 -4.36486,-2.66741 -2.9099,-5.57733 -3.1524,-5.33481 -8.7297,4.36485 -0.96996,2.66742 z m 30.31148,13.33706 1.93993,-2.90991 7.03226,1.45494 0.96998,-0.72747 9.21468,0.96996 -0.48498,1.93995 -3.87988,2.18241 -6.54727,-0.48498 -8.24472,-2.4249 z m 8.00223,7.75972 2.90991,5.81981 4.60732,-1.69745 0.485,-2.42493 -2.42492,-3.15238 -5.57731,-0.48498 0,1.93993 z m 10.42714,-1.69744 3.39489,-4.36485 7.03226,3.63738 6.54727,1.69744 6.5473,4.12236 0,2.9099 -5.33481,2.66742 -7.27478,1.45494 -3.63736,-2.18243 -7.27476,-9.94216 z m 24.97667,23.2792 2.42491,-1.93992 5.09234,2.42493 11.3971,5.33481 5.09234,3.15239 2.4249,3.63738 2.90991,6.54727 6.06229,3.87987 -0.48498,1.93995 -5.8198,4.84983 -6.30479,2.18243 -2.18242,-0.96996 -4.60736,2.66739 -3.63736,4.84984 -3.39489,4.36485 -2.66742,-0.24249 -5.33481,-3.87987 -0.48498,-6.78976 0.96996,-3.63738 -2.42492,-8.48721 -3.1524,-2.66742 -0.24249,-3.87987 3.39489,-1.45494 3.1524,-4.60734 0.72747,-1.45496 -2.42491,-2.66742 -0.48498,-3.1524 z"
     inkscape:connector-curvature="0" />
  <path
     fill="#d3d3d3" style="stroke:#ffffff;stroke-width:1.125;stroke-miterlimit:4;stroke-opacity:1;stroke-dasharray:none"
     class="location"
     id="Alaska"
     d="m 237.11506,669.71657 -0.48498,128.03569 2.4249,1.45494 4.60736,0.24249 2.18241,-1.69743 3.87987,0 0.2425,4.36485 10.42715,10.18466 0.72748,3.87987 5.09232,-2.90991 0.96998,-0.24249 0.48498,-4.60734 2.18241,-2.42492 1.69746,-0.24249 2.90989,-2.18244 4.60734,3.1524 0.96998,4.36487 2.90989,1.69743 1.69745,3.63738 5.81982,2.6674 5.09231,8.97221 4.12235,5.81979 3.39489,4.12237 2.18244,5.5773 7.51724,2.66742 7.75975,3.15239 1.45494,6.54729 0.72747,4.60734 -1.45494,5.09233 -2.66742,3.39488 -2.42491,-1.21245 -2.18243,-4.60736 -4.12236,-2.18241 -2.66741,-1.69746 -1.21246,1.21247 2.18243,4.12237 0.24248,5.5773 -1.69744,0.72747 -2.90989,-2.90989 -3.15239,-1.93994 0.72747,2.42492 1.93992,2.66742 -1.21245,1.21245 c 0,0 -1.21245,-0.48498 -1.93992,-1.45496 -0.7275,-0.96996 -3.1524,-5.09232 -3.1524,-5.09232 l -1.45496,-3.39489 c 0,0 -0.48498,1.93994 -1.45495,1.45494 -0.96997,-0.48498 -1.93993,-2.18241 -1.93993,-2.18241 l 2.6674,-2.90991 -2.18242,-2.18242 0,-7.51725 -1.21246,0 -1.21245,5.09232 -1.69745,0.7275 -1.45495,-5.57733 -0.96997,-5.57732 -1.21246,-0.72747 0.48499,8.48723 0,1.69743 -2.18244,-1.93992 -5.33481,-8.97221 -3.1524,-0.72747 -0.96996,-5.57731 -2.42491,-4.36485 -2.42493,-1.69746 0,-3.39488 3.1524,-1.93993 -0.72747,-0.48498 -3.87987,0.96996 -5.09234,-3.63737 -3.87987,-4.36486 -7.27474,-3.87987 -6.06231,-3.87987 1.93995,-4.84983 0,-2.42492 -2.66742,2.42492 -4.36485,1.69744 -5.57732,-1.69744 -8.48722,-3.63737 -8.24471,0 -0.96996,0.72747 -9.69967,-5.81982 -3.1524,-0.48498 -4.12236,-8.7297 -5.33483,0.48498 -5.33482,2.18243 0.72748,6.78978 1.69743,-4.36485 1.45497,0.48498 -2.18244,6.54727 4.84983,-4.12236 0.96998,2.42492 -5.81981,6.54727 -1.93993,-0.48498 -0.72748,-2.90991 -1.93993,-1.21245 -1.93993,1.69745 -4.12236,-2.66741 -4.60736,3.1524 -2.66739,3.15239 -5.09233,3.1524 -7.03227,-0.24251 -0.72747,-3.15238 5.5773,-0.96998 0,-1.93992 -3.3949,-0.96999 1.45497,-3.63736 3.39488,-5.81981 0,-2.6674 0.24249,-1.21247 6.54729,-3.39489 1.45494,1.93994 4.12238,0 -1.93994,-3.87986 -5.57733,-0.48499 -7.51723,4.12236 -3.63738,5.09232 -2.66741,3.87988 -1.69744,3.39489 -6.30479,2.18241 -4.60735,3.87987 -0.48499,2.42493 3.39489,1.45496 1.21247,3.15237 -4.12237,4.84984 -9.69966,6.3048 -11.63962,6.30479 -3.1524,1.69743 -8.00223,1.69746 -8.00224,3.39487 2.66742,1.93994 -2.18243,2.18242 -0.72748,1.69745 -4.12235,-1.45496 -4.84983,0.24249 -1.21247,3.39489 -1.45495,0 0.48498,-3.63738 -5.33482,1.93995 -4.36485,1.45494 -5.09233,-1.93993 -4.36485,2.90989 -4.84984,0 -3.15239,1.93995 -2.42492,1.21245 -3.15239,-0.48498 -3.87987,-1.69744 -3.39489,0.96997 -1.45495,1.45494 -2.42492,-1.69743 0,-2.90991 4.60735,-1.93993 9.45718,0.96997 6.54728,-2.42493 3.15239,-3.15238 4.36486,-0.96998 2.6674,-1.21246 4.12237,0.24249 2.42491,1.93995 1.45495,-0.48498 3.39488,-4.12236 4.60736,-1.45497 5.09232,-0.96996 1.93994,-0.48498 0.96996,0.72747 1.21247,0 1.93993,-5.57732 6.0623,-2.18241 2.9099,-5.57731 3.39489,-6.78978 2.42492,-2.18243 0.48498,-3.87987 -2.42492,1.93994 -5.09234,0.96997 -0.96996,-3.63738 -1.93993,-0.48498 -1.45496,1.45494 -0.24249,4.36487 -2.18243,-0.24251 -2.18242,-8.7297 -1.93994,1.93992 -1.69743,-0.72747 -0.48498,-2.90989 -6.0623,0.24249 -3.1524,1.69744 -3.87986,-0.48498 2.18241,-2.18242 0.72747,-3.87987 -0.96996,-2.90991 2.18243,-1.45494 1.93993,-0.24249 -0.96996,-2.66742 0,-6.54728 -1.45495,-1.45495 -1.21247,2.18242 -9.21468,0 -2.18243,-1.93993 -0.96996,-5.81979 -3.1524,-5.33484 0,-1.45494 3.1524,-1.21247 0.24249,-3.1524 1.69744,-1.69743 -1.21246,-0.72747 -1.93993,0.72747 -1.69745,-4.12236 1.45496,-7.51726 6.78977,-4.84982 3.87986,-2.42493 2.9099,-5.5773 4.12238,-1.93995 3.87986,1.69746 0.48498,3.63738 3.63738,-0.48501 4.84983,-3.63736 2.42492,0.96997 1.45495,0.96996 2.42492,0 3.39489,-1.93993 1.21247,-6.54729 c 0,0 0.48498,-4.36484 1.45494,-5.09232 0.96996,-0.72747 1.45495,-1.45494 1.45495,-1.45494 l -1.69744,-2.90991 -3.87987,1.21246 -4.84984,1.21245 -2.90991,-0.72747 -5.33481,-2.66742 -7.51724,-0.24249 -5.33483,-5.5773 0.72747,-5.8198 0.96998,-3.63738 -3.15239,-2.66741 -2.90991,-5.57733 0.72747,-1.21245 10.18466,-0.72747 3.15239,0 1.45495,1.45494 0.96998,0 -0.24249,-2.42491 5.81979,-0.96996 3.87987,0.48498 2.18243,1.69744 -2.18243,3.1524 -0.72748,2.18241 4.12238,2.42493 7.51724,2.66741 2.66742,-1.45494 -3.39489,-6.54728 -1.45496,-4.84984 1.45496,-1.21247 -5.09233,-2.90989 -0.72748,-1.69746 0.72748,-2.4249 -1.21246,-5.81981 -4.36486,-7.03227 -3.63738,-6.30478 4.36486,-2.90991 4.84984,0 2.66741,0.96997 6.30479,-0.24249 5.57731,-5.33481 1.69744,-4.60735 5.57732,-3.63738 2.42491,1.45495 4.12236,-0.96997 5.57731,-3.1524 1.69746,-0.24249 1.45494,1.21248 6.78977,-0.24251 4.12236,-4.60734 1.69744,0 5.33483,3.63737 2.90989,3.1524 -0.72747,1.69744 0.96996,1.69745 2.42493,-2.42492 5.81981,0.48498 0.48498,5.5773 2.90991,2.18244 10.66963,0.96996 9.45719,6.30479 2.18241,-1.45494 7.75975,3.87987 3.15239,-0.96996 2.90991,-1.21248 7.27474,2.90991 6.54729,4.36485 z m -172.6542,43.40604 3.1524,8.00223 -0.24249,1.45495 -4.36486,-0.48499 -2.66741,-6.0623 -2.66741,-2.18241 -3.63738,0 -0.24249,-3.87988 2.66741,-3.63738 1.69745,3.63738 2.18242,2.18242 4.12236,0.96998 z m -3.87987,50.1958 5.57732,1.21247 5.57731,1.45494 1.21246,1.45497 -2.42492,5.5773 -4.60735,-0.24249 -5.09232,-5.33481 -0.2425,-4.12238 z m -31.03895,-21.09678 1.69745,3.87986 1.69744,2.42493 -1.69744,1.21245 -3.1524,-4.60734 0,-2.9099 1.45495,0 z m -20.6118,109.60631 5.09233,-3.39489 5.09232,-1.45496 3.87987,0.48498 0.72748,2.42492 2.9099,0.72748 2.9099,-2.90989 -0.48498,-2.42492 4.12236,-0.96997 4.36485,3.87987 -1.69744,2.6674 -6.54728,1.69745 -4.12236,-0.72747 -5.57731,-1.69745 -6.54728,2.18243 -2.42492,0.48498 -1.69744,-0.96996 z m 73.47502,-6.78977 2.42492,2.9099 3.15239,-2.42492 -2.18242,-1.93995 -3.39489,1.45497 z m 4.36485,4.60733 1.69744,-3.39488 3.15239,0.48498 -1.21245,2.9099 -3.63738,0 z m 35.4038,-2.9099 2.18244,2.66741 1.45496,-1.69743 -1.21247,-2.90991 -2.42493,1.93993 z m 13.09457,-18.67186 1.69745,8.7297 4.36485,1.21246 7.51724,-4.36486 6.54728,-3.87987 -2.4249,-3.63737 0.72747,-3.63738 -3.1524,1.93994 -4.36485,-1.21247 2.42492,-1.69743 2.90989,1.21245 5.81981,-2.66742 0.72748,-2.18241 -3.63738,-1.21246 1.21245,-2.90991 -4.12236,2.90991 -7.03226,5.33482 -7.27475,4.36485 -1.93994,1.69745 z m 63.53286,-29.8265 3.63738,-2.18242 -1.45496,-2.66742 -2.6674,1.45495 0.48498,3.39489 z"
     inkscape:connector-curvature="0" />
  <path
     fill="#d3d3d3" style="fill-opacity:1;stroke:#ffffff;stroke-width:1.125;stroke-miterlimit:4;stroke-opacity:1;stroke-dasharray:none"
     class="location"
     id="Florida"
     d="m 1139.725,647.91824 3.3985,10.9779 5.5946,14.61339 8.0022,14.06445 5.5773,9.45714 7.2747,8.24469 6.0623,5.57728 2.4249,4.36484 -1.6975,1.93992 -1.2124,1.93992 4.3648,11.15458 4.3648,4.36482 3.8799,8.0022 5.3348,8.72967 6.7897,12.36702 1.9399,11.39706 0.7275,17.94432 0.97,2.66739 -0.485,5.09231 -3.6374,1.93993 0.485,2.90988 -0.9699,2.9099 0.4849,3.63735 0.7275,2.90989 -4.1223,4.84982 -4.6074,2.18241 -5.8197,0.24249 -2.1825,2.42491 -3.6373,1.45494 -1.9399,-0.72747 -1.6975,-1.45494 -0.4849,-4.36483 -1.2125,-5.09231 -5.0923,-7.75971 -5.3348,-3.39486 -5.8198,-0.48498 -1.2124,1.93992 -4.6074,-6.54724 -0.9699,-5.3348 -3.8799,-6.06226 -2.6674,-1.69745 -2.4249,3.15239 -2.6674,-0.48498 -3.1524,-7.51722 -4.3648,-5.81978 -4.3648,-8.00218 -3.8799,-4.60733 -5.3348,-5.57728 3.1524,-3.63737 4.8498,-8.24469 -0.2425,-2.4249 -6.7897,-1.45494 -2.4249,0.96996 0.485,0.96996 3.8798,1.45494 -2.1824,6.78975 -1.2124,0.72747 -2.6674,-6.06226 -1.94,-7.27473 -0.4849,-4.12235 2.1824,-7.03222 0,-14.30696 -4.6074,-5.57728 -1.9399,-4.60733 -7.7597,-1.93992 -2.9099,-0.96996 -2.4249,-3.87985 -5.0923,-2.42492 -1.6974,-5.0923 -4.1224,-1.45494 -3.6373,-5.57729 -6.3048,-2.18241 -4.3648,-2.18242 -3.8799,0 -6.0622,1.21246 -0.2425,2.90988 1.2124,1.45494 -0.7275,1.69745 -4.6073,-0.24249 -5.5772,5.33479 -5.3349,2.90988 -5.8197,0 -4.8498,1.93994 -0.485,-4.12235 -2.4249,-2.90989 -4.3649,-1.69743 -2.4249,-2.18243 -12.1245,-5.81977 -11.3971,-2.66739 -6.54722,0.96996 -8.97216,0.72747 -8.97216,3.15238 -5.21886,0.91944 -0.35688,-12.07462 -3.87985,-2.90988 -2.66741,-2.66741 0.48498,-4.60734 15.27693,-1.93992 38.31363,-4.36483 10.1846,-0.96996 8.154,0.4204 3.8799,5.81979 2.1824,2.18241 12.1472,0.77283 16.2296,-0.96996 32.2686,-1.93993 8.1686,-1.01156 7.6614,0.30677 0.6402,4.36483 3.3495,1.21245 0.3524,-6.945 -2.2923,-6.25942 1.9626,-2.15975 8.3319,0.68213 7.7597,0.48498 z m 18.8182,198.60762 3.6373,-0.96996 1.94,-0.36374 2.1824,-3.51613 3.5161,-2.42492 1.94,0.72749 2.5461,0.48498 0.6062,1.57618 -5.2135,1.81869 -6.3048,2.18243 -3.5161,1.81869 -1.3337,-1.33371 z m 20.248,-7.51724 1.8187,1.5762 4.1224,-3.15238 8.0022,-6.30479 5.5773,-5.8198 3.7586,-9.94215 1.455,-2.54616 0.2424,-5.09232 -1.0912,0.72747 -1.4549,4.2436 -2.1825,6.911 -4.8498,7.881 -6.5472,6.30477 -5.0924,2.90989 -3.7586,2.30367 z"
     sodipodi:nodetypes="cccccccccccccccccccccccccccccccccccccccccccccccccccccccccccccccccccccccccccccccccccccccccccccccccccccccccccccccccccccccccccccccccccccccccccccc"
     inkscape:connector-curvature="0" />
  <path
     fill="#d3d3d3" style="fill-opacity:1;stroke:#ffffff;stroke-width:1.125;stroke-miterlimit:4;stroke-opacity:1;stroke-dasharray:none"
     class="location"
     id="New_Hampshire"
     d="m 1321.1985,202.84118 1.3035,-1.61475 1.6354,-4.93653 -3.8146,-1.37021 -0.7275,-4.60734 -5.8198,-1.69743 -0.485,-4.12236 -10.9121,-35.16123 -6.9021,-21.81448 -1.3457,-0.008 -0.9699,2.4249 -0.97,-0.72747 -1.4549,-1.45494 -2.1824,2.90988 -0.073,7.54809 0.4675,8.50082 2.9099,4.12237 0,6.06228 -5.5773,7.59417 -3.8799,1.69746 0,1.69743 1.6974,2.6674 0,12.85203 -1.2124,13.82201 -0.2425,7.27473 1.4549,1.93995 -0.2424,6.78973 -0.7275,2.66742 1.4532,1.06383 25.1815,-6.63682 3.2623,-0.90368 2.7654,-4.15999 5.4078,-2.41968 z"
     sodipodi:nodetypes="ccccccccccccccccccccccccccccccccc"
     inkscape:connector-curvature="0" />
  <path
     d="m 316.5,728.70404 v 82.5 l 53.99999,67.5 M 0,626.70404 h 216 l 100.5,102 h 128.99999 l 79.5,81 v 69"
     id="path57"
     inkscape:connector-curvature="0"
     style="fill:none;stroke:#a9a9a9;stroke-width:3" />
  <g
     class="location"
     id="Michigan"
     fill="#d3d3d3" style="fill-opacity:1;stroke:#ffffff;stroke-width:0.75;stroke-miterlimit:4;stroke-opacity:1;stroke-dasharray:none"
     transform="matrix(1.5,0,0,1.5,0,-10.79597)">
    <path
       sodipodi:nodetypes="cccccccccccsccccccccccccccccccccccccccccccccccccccccccccccccccccccccccccccccccccccccccccccccccccc"
       d="m 697.86007,177.23689 -3.23321,-8.24469 -2.26325,-9.05298 -2.4249,-3.23321 -2.58657,-1.77827 -1.6166,1.13163 -3.87986,1.77826 -1.93992,5.01148 -2.74823,3.71819 -1.13162,0.64664 -1.45495,-0.64664 c 0,0 -2.58656,-1.45495 -2.4249,-2.10159 0.16166,-0.64664 0.48498,-5.01147 0.48498,-5.01147 l 3.39487,-1.29329 0.8083,-3.39487 0.64664,-2.58656 2.42491,-1.61661 -0.32332,-10.02295 -1.61661,-2.26324 -1.29328,-0.80831 -0.8083,-2.10158 0.8083,-0.8083 1.6166,0.32332 0.16166,-1.61661 -2.4249,-2.26325 -1.29329,-2.58656 -2.58656,0 -4.5265,-1.45495 -5.49645,-3.39487 -2.74823,0 -0.64664,0.64665 -0.96997,-0.48499 -3.07154,-2.26324 -2.90989,1.77826 -2.90989,2.26325 0.32332,3.55653 0.96996,0.32332 2.10159,0.48498 0.48498,0.8083 -2.58657,0.80831 -2.58656,0.32332 -1.45495,1.77826 -0.32332,2.10159 0.32332,1.6166 0.32332,5.49646 -3.55653,2.10159 -0.64664,-0.16167 0,-4.20317 1.29328,-2.4249 0.64665,-2.42491 -0.80831,-0.8083 -1.93992,0.8083 -0.96997,4.20317 -2.74822,1.13162 -1.77827,1.93993 -0.16166,0.96996 0.64664,0.8083 -0.64664,2.58657 -2.26325,0.48498 0,1.13163 0.80831,2.4249 -1.13163,6.1431 -1.6166,4.04151 0.64664,4.68816 0.48498,1.13162 -0.8083,2.42491 -0.32332,0.8083 -0.32332,2.74823 3.55653,5.98143 2.90989,6.46642 1.45494,4.84982 -0.8083,4.68815 -0.96996,5.98144 -2.42491,5.17313 -0.32332,2.74823 -3.25887,3.08515 4.40861,-0.16205 21.41849,-2.26325 7.27784,-0.98706 0.0964,1.66635 6.85194,-1.21246 10.29808,-1.50313 3.8542,-0.46091 0.13805,-0.58755 0.16166,-1.45494 2.10158,-3.71819 2.00056,-1.73785 -0.22229,-5.05189 1.59699,-1.59699 1.09062,-0.34294 0.22228,-3.55653 1.53577,-3.03112 1.05079,0.60622 0.16166,0.64664 0.80831,0.16166 1.93992,-0.96996 -0.32332,-9.53797 z"
       id="MI-"
       style="fill-opacity:1;stroke:#ffffff;stroke-width:0.75;stroke-miterlimit:4;stroke-opacity:1;stroke-dasharray:none"
       inkscape:connector-curvature="0" />
    <path
       sodipodi:nodetypes="ccccccccccccccsccccccccccccccccccccccccccccccccccccccccccccccccccccccccccccccccccccccccccccccccccccccccccccccc"
       inkscape:label="#SP-"
       style="fill-opacity:1;stroke:#ffffff;stroke-width:0.75;stroke-miterlimit:4;stroke-opacity:1;stroke-dasharray:none"
       id="SP-"
       d="m 581.61931,82.059006 1.82899,-2.057604 2.17192,-0.800181 5.37264,-3.886597 2.28622,-0.571559 0.45726,0.457254 -5.14402,5.14402 -3.31504,1.943289 -2.05761,0.914496 -1.60036,-1.143118 z m 86.17438,32.128184 0.64664,2.50574 3.23322,0.16166 1.29329,-1.21246 c 0,0 -0.0808,-1.45494 -0.40415,-1.61661 -0.32333,-0.16166 -1.61661,-1.8591 -1.61661,-1.8591 l -2.18242,0.24249 -1.61662,0.16166 -0.32332,1.13163 0.96997,0.48499 z m -100.3016,-2.97401 0.71628,-0.5804 2.74823,-0.80831 3.55653,-2.26324 0,-0.96997 0.64665,-0.64664 5.98143,-0.96996 2.42491,-1.93993 4.36483,-2.10158 0.16166,-1.293286 1.93993,-2.909889 1.77826,-0.808302 1.29329,-1.778265 2.26324,-2.263247 4.36484,-2.424907 4.68815,-0.484981 1.13162,1.131623 -0.32332,0.969963 -3.71819,0.969963 -1.45494,3.071549 -2.26325,0.808302 -0.48498,2.424907 -2.42491,3.23321 -0.32332,2.58657 0.8083,0.48498 0.96997,-1.13162 3.55653,-2.90989 1.29328,1.29328 2.26325,0 3.23321,0.96996 1.45494,1.13163 1.45494,3.07155 2.74823,2.74822 3.87985,-0.16166 1.45495,-0.96996 1.6166,1.29328 1.61661,0.48499 1.29328,-0.80831 1.13162,0 1.61661,-0.96996 4.04151,-3.55653 3.39487,-1.13162 6.62808,-0.32332 4.52649,-1.93993 2.58657,-1.29328 1.45495,0.16166 0,5.65811 0.48498,0.32332 2.90988,0.80831 1.93993,-0.48499 6.1431,-1.6166 1.13162,-1.13162 1.45495,0.48498 0,6.9514 3.23321,3.07155 1.29328,0.64664 1.29328,0.96996 -1.29328,0.32332 -0.8083,-0.32332 -3.71819,-0.48498 -2.10159,0.64664 -2.26325,-0.16166 -3.23321,1.45495 -1.77826,0 -5.81978,-1.29329 -5.17313,0.16166 -1.93993,2.58657 -6.9514,0.64664 -2.42491,0.8083 -1.13162,3.07155 -1.29328,1.13163 -0.48498,-0.16166 -1.45495,-1.61661 -4.52649,2.42491 -0.64664,0 -1.13163,-1.61661 -0.8083,0.16166 -1.93992,4.36484 -0.96997,4.04151 -3.18112,7.0008 -1.17676,-1.03427 -1.37174,-1.03132 -1.94078,-10.28802 -3.54448,-1.37005 -2.05258,-2.28623 -12.12036,-2.74348 -2.85527,-1.02964 -8.23042,-2.17274 -7.88999,-1.14312 -3.7193,-5.14569 z"
       inkscape:connector-curvature="0" />
  </g>
  <path
     fill="#d3d3d3" style="fill-opacity:1;stroke:#ffffff;stroke-width:1.125;stroke-miterlimit:4;stroke-opacity:1;stroke-dasharray:none"
     class="location"
     id="Vermont"
     d="m 1266.7263,220.2909 0.475,-8.01844 -4.3361,-16.17626 -0.9699,-0.48498 -4.3649,-1.93993 1.2125,-4.36484 -1.2125,-3.15238 -4.05,-6.95997 1.4549,-5.81979 -1.2125,-7.75973 -3.6373,-9.69966 -1.2084,-7.38377 39.6291,-10.09773 0.463,8.28332 2.8744,4.11335 0,6.06228 -5.5607,7.58698 -3.8799,1.71401 -0.017,1.68085 1.965,2.27868 -0.4664,12.14696 -0.9142,13.88829 -0.3419,8.33541 1.455,1.93993 -0.2425,6.85604 -0.7275,2.53483 1.5213,1.09074 -11.1564,2.26007 -6.7526,1.08574 z"
     sodipodi:nodetypes="ccccccccccccccccccccccccccccc"
     inkscape:connector-curvature="0" />
  <path
     fill="#d3d3d3" style="fill-opacity:1;stroke:#ffffff;stroke-width:1.125;stroke-miterlimit:4;stroke-opacity:1;stroke-dasharray:none"
     class="location"
     id="Maine"
     d="m 1384.2597,107.45011 2.9099,3.15238 3.3948,5.57729 0,2.90989 -3.1524,7.03222 -2.9099,0.96997 -5.0923,4.60732 -7.2747,8.24468 c 0,0 -0.9699,0 -1.9399,0 -0.97,0 -1.4549,-3.15237 -1.4549,-3.15237 l -2.6674,0.24249 -1.455,2.18241 -3.6373,2.18243 -1.455,2.18241 2.4249,2.18241 -0.7275,0.96997 -0.7274,4.12234 -2.9099,-0.24249 0,-2.42491 -0.485,-1.93993 -2.1824,0.48499 -2.6674,-4.84981 -3.1524,1.93992 1.9399,2.18241 0.485,1.69744 -1.2124,1.93992 0.4849,4.60733 0.2425,2.4249 -2.4249,3.87986 -4.3648,0.72747 -0.485,4.36483 -8.0022,4.60733 -1.9399,0.72747 -2.4249,-2.18241 -4.6073,5.33479 1.4549,4.84982 -2.1824,1.93992 -0.2425,6.54724 -1.6849,9.38904 -3.6934,-1.73392 -0.7275,-4.60734 -5.8198,-1.69745 -0.4849,-4.12236 -10.9122,-35.16123 -7.0478,-21.95961 2.1308,-0.17725 2.2707,0.61485 0,-3.87986 1.9624,-6.74468 3.8799,-7.03223 2.1824,-6.06227 -2.9099,-3.63736 0,-8.972154 1.2124,-1.454944 1.2125,-4.122342 -0.2425,-2.182416 -0.2425,-7.274721 2.6674,-7.274721 4.3649,-13.336989 3.1523,-6.304758 1.94,0 1.9399,0.24249 0,1.697434 1.9399,3.394871 4.1223,0.969963 1.2125,-1.212455 0,-1.454943 6.0623,-4.364833 2.6674,-2.667402 2.1824,0.2425 8.9721,3.637356 2.9099,1.454943 13.5795,44.860781 8.9722,0 1.2124,2.909889 0.2425,7.274721 4.3648,3.39487 1.2125,0 0.2425,-0.72747 -0.7275,-1.69744 4.1224,-0.24249 z m -31.3977,45.2213 2.3037,-2.30367 2.0612,1.5762 0.8487,3.63738 -2.5462,1.3337 -2.6674,-4.24361 z m 10.0634,-8.85093 2.6674,2.78865 c 0,0 1.94,0.1212 1.94,-0.36375 0,-0.48498 0.3637,-3.03114 0.3637,-3.03114 l 1.3337,-1.21245 -1.2125,-2.66742 -3.0311,1.09122 -2.0612,3.39489 z"
     sodipodi:nodetypes="ccccccccsccccccccccccccccccccccccccccccccccccccccccccccccccccccccccccccccccccccccccccccccsccccc"
     inkscape:connector-curvature="0" />
  <path
     fill="#d3d3d3" style="fill-opacity:1;stroke:#ffffff;stroke-width:1.125;stroke-miterlimit:4;stroke-opacity:1;stroke-dasharray:none"
     class="location"
     id="Rhode_Island"
     d="m 1311.105,257.54708 -5.5437,-22.43399 9.404,-2.76771 3.2867,2.89068 4.9597,6.48098 4.0318,6.60313 -4.499,2.43719 -1.9399,-0.24249 -1.6974,2.6674 -3.6374,2.90988 -4.3648,1.45493 z"
     sodipodi:nodetypes="ccccccccccc"
     inkscape:connector-curvature="0" />
  <path
     fill="#d3d3d3" style="fill-opacity:1;stroke:#ffffff;stroke-width:1.125;stroke-miterlimit:4;stroke-opacity:1;stroke-dasharray:none"
     class="location"
     id="New_York"
     d="m 1245.5692,272.32244 -1.6975,-1.45494 -3.8798,-0.24249 -3.3949,-2.90988 -2.4459,-9.1937 -5.1877,0.13575 -3.6656,-4.0623 -29.078,6.57291 -64.5026,13.09454 -11.2945,1.84198 -1.1073,-9.70251 2.1422,-1.68807 1.9399,-1.69743 1.455,-2.42491 2.6674,-1.69743 2.9099,-2.66741 0.7274,-2.4249 3.1524,-4.12234 1.6974,-1.45494 -0.2424,-1.45496 -1.94,-4.60731 -2.6674,-0.24249 -2.9099,-9.21465 4.3649,-2.6674 6.5472,-2.18241 6.0623,-1.93994 4.8498,-0.72747 9.4571,-0.24249 2.9099,1.93994 2.4249,0.24249 3.1524,-1.93994 3.8799,-1.69743 7.7597,-0.72747 3.1523,-2.6674 2.6674,-4.84982 2.425,-2.90988 3.1523,0 2.9099,-1.69744 0.2425,-3.39486 -2.1824,-3.15239 -0.485,-2.18241 1.6975,-3.15238 0,-2.18241 -2.6675,0 -2.6673,-1.21245 -1.2125,-1.69745 -0.2425,-3.87985 8.7297,-8.24468 0.9699,-1.21245 2.1825,-4.36483 4.3648,-6.78975 4.1223,-5.57729 3.1524,-3.63735 3.6227,-2.73841 4.622,-1.86891 8.2447,-1.93994 4.8498,0.24249 6.7898,-2.18241 11.3477,-3.10676 0.7797,7.46951 3.6374,9.69966 1.2125,7.75973 -1.455,5.81979 3.8799,6.78975 1.2124,3.15238 -1.2124,4.36485 4.3648,1.93992 0.97,0.48498 4.6073,16.48941 -0.8044,7.58951 -0.7275,16.2469 1.2125,8.24471 1.2124,5.33481 2.1824,10.91211 0,12.12456 -1.6974,3.39487 2.759,2.98919 1.1948,2.51763 -2.9099,2.6674 0.485,1.93992 1.9399,-0.48498 2.1825,-1.93992 3.3948,-3.87985 1.6975,-0.96996 2.4249,0.96996 3.3948,0.24249 11.8821,-5.81978 4.3648,-4.12234 1.9399,-2.18241 6.3048,2.4249 -5.0923,5.33479 -5.8198,4.36484 -10.6696,8.00218 -3.8798,1.45496 -8.7297,2.90988 -6.0623,1.69744 -1.7621,-0.79939 -0.366,-5.5328 0.7275,-4.12236 -0.2425,-3.15237 -4.2203,-2.5485 -6.7897,-1.45495 -5.8198,-1.69743 -5.5773,-2.66742 z"
     inkscape:connector-curvature="0" />
  <path
     fill="#d3d3d3" style="fill-opacity:1;stroke:#ffffff;stroke-width:1.125;stroke-miterlimit:4;stroke-opacity:1;stroke-dasharray:none"
     class="location"
     id="Pennsylvania"
     d="m 1237.6856,326.24211 1.9626,-0.4065 3.4943,-1.87987 1.8178,-3.72461 2.4249,-3.39487 4.8498,-4.60734 0,-1.21245 -3.6373,-2.4249 -5.3348,-3.63738 -1.455,-3.87986 -4.1223,-0.48498 -0.2425,-1.69744 -1.2125,-4.12235 3.3949,-1.69743 0.2425,-3.63738 -1.9399,-1.93993 0.2424,-2.42492 2.91,-4.60732 0,-4.60734 4.0464,-3.96882 -1.3804,-1.01247 -3.7861,-0.28937 -3.4418,-2.90988 -2.3249,-9.17409 -5.2569,0.15078 -3.6828,-4.05499 -27.1365,6.29665 -64.5026,13.09454 -13.3371,2.18241 -0.931,-9.78209 -8.0438,7.60148 -1.9399,0.72747 -6.3034,4.51333 4.3661,28.70618 3.7225,14.59404 5.3577,28.89223 4.9039,-0.95652 17.9154,-2.2537 56.89,-11.4978 22.3143,-4.23498 12.4505,-2.43354 0.4007,-0.3578 3.1524,-2.42493 3.1524,-1.02126 z"
     sodipodi:nodetypes="cccccccccccccccccccccccccccccccccccccccccccc"
     inkscape:connector-curvature="0" />
  <path
     fill="#d3d3d3" style="fill-opacity:1;stroke:#ffffff;stroke-width:1.125;stroke-miterlimit:4;stroke-opacity:1;stroke-dasharray:none"
     class="location"
     id="New_Jersey"
     d="m 1244.5191,271.89428 -3.4838,4.1014 0,4.60734 -2.9099,4.60733 -0.2425,2.42493 1.94,1.93992 -0.2425,3.63738 -3.3949,1.69743 1.2124,4.12234 0.2425,1.69745 4.1224,0.48498 1.4549,3.87985 5.3348,3.63738 3.6374,2.4249 0,1.21247 -4.4748,4.04484 -2.4249,3.39486 -2.1824,4.12236 -3.3949,1.93992 -0.6937,2.40372 -0.3637,1.81869 -0.9139,3.91011 1.6384,3.36628 4.8498,4.36484 7.2747,3.39487 6.0623,0.96996 0.2425,2.18241 -1.2125,1.45494 0.485,4.12235 1.2125,0 3.1524,-3.63735 1.2124,-7.27473 4.1224,-6.06227 4.6073,-9.69963 1.6974,-8.24467 -0.9699,-1.69745 -0.2425,-14.06446 -2.425,-5.09229 -1.6974,1.21245 -4.1223,0.48498 -0.7275,-0.72747 1.6974,-1.45496 3.1524,-2.90988 0.095,-1.64074 -0.5766,-5.15076 0.86,-4.12236 -0.1762,-2.95352 -4.2113,-2.62552 -7.6382,-1.76364 -6.2061,-2.07245 -5.3785,-2.46853 z"
     sodipodi:nodetypes="ccccccccccccccccccccccccccccccccccccccccccccccccccc"
     inkscape:connector-curvature="0" />
  <path
     fill="#d3d3d3" style="fill-opacity:1;stroke:#ffffff;stroke-width:1.125;stroke-linecap:butt;stroke-miterlimit:4;stroke-opacity:1;stroke-dasharray:none"
     class="location"
     id="Delaware"
     d="m 1238.4392,331.62269 0.5524,-3.22034 0.5626,-2.53657 -2.4345,0.59664 -2.4232,0.70134 -3.3093,2.64645 2.5801,7.56432 3.3949,8.48718 3.1524,14.54947 2.4249,9.45717 7.5172,-0.24249 9.2132,-1.77102 -3.3963,-11.0794 -1.455,0.72747 -5.3348,-3.63735 -2.6674,-7.03224 -2.9099,-5.3348 -4.7206,-4.30546 -1.2963,-3.14718 0.5496,-2.42319 z"
     sodipodi:nodetypes="cccccccccccccccccccc"
     inkscape:connector-curvature="0" />
  <path
     fill="#d3d3d3" style="fill-opacity:1;stroke:#ffffff;stroke-width:1.125;stroke-miterlimit:4;stroke-opacity:1;stroke-dasharray:none"
     class="location"
     id="Maryland"
     d="m 1259.6876,367.82618 -9.0128,1.80576 -7.7143,0.17619 -2.7654,-10.3835 -2.8872,-13.75398 -3.8589,-9.28267 -1.9326,-6.5975 -11.259,2.43354 -22.3144,4.23498 -56.1771,11.32635 1.697,7.51749 1.4549,8.48717 0.485,-0.48498 3.1524,-3.63735 3.3948,-3.92649 3.6374,-0.92334 2.1824,-2.18243 2.6674,-3.87985 1.9399,0.96997 4.3649,-0.48499 3.8799,-3.15237 3.0103,-2.17991 2.7678,-0.72747 2.4666,1.69493 4.3648,2.18241 2.9099,2.6674 1.8187,2.30367 6.1835,2.54615 0,4.36483 8.2447,1.93994 1.7166,0.81297 2.1179,-3.04248 4.3229,2.95524 -1.9172,3.72289 -1.1479,5.97849 -2.6674,3.87986 0,3.15238 0.9699,2.66741 7.596,2.03353 6.4666,-0.0926 4.6073,1.45496 3.1524,0.48498 1.455,-3.15239 -2.1825,-3.15237 0,-2.6674 -3.6373,-3.15239 -3.1524,-8.24467 1.9399,-8.0022 -0.2425,-3.15237 -1.9399,-1.93994 c 0,0 2.1824,-2.4249 2.1824,-3.39486 0,-0.96997 0.7275,-3.15238 0.7275,-3.15238 l 2.9099,-1.93992 2.9099,-2.42492 0.7274,1.45496 -2.1824,2.4249 -1.9399,5.57728 0.485,1.69743 2.6674,0.48498 0.7275,8.24469 -3.1524,1.45494 0.485,5.3348 0.7274,-0.24249 1.6975,-2.90988 2.4249,2.66739 -2.4249,1.93993 -0.485,5.09231 3.8799,5.0923 5.8197,0.72747 2.425,-1.21245 4.8548,6.2744 2.0375,0.80445 9.9805,-4.19543 3.0114,-6.0358 -0.654,-7.36197 z m -23.9543,13.54308 1.6974,3.75862 0.2425,2.66741 1.6974,2.78865 c 0,0 1.3337,-1.33371 1.3337,-1.81869 0,-0.48498 -1.0912,-4.60734 -1.0912,-4.60734 l -1.0912,-3.51614 -2.7886,0.72749 z"
     sodipodi:nodetypes="ccccccccccccccccccccccccccccccccccccccccccccccccccsccccccccccccccccccccccccccccsccc"
     inkscape:connector-curvature="0" />
  <path
     fill="#d3d3d3" style="fill-opacity:1;stroke:#ffffff;stroke-width:1.125;stroke-miterlimit:4;stroke-opacity:1;stroke-dasharray:none"
     class="location"
     id="Virginia"
     d="m 1247.4583,388.30742 -0.2159,-2.92055 9.6802,-3.82482 -1.1556,4.82676 -4.38,5.66867 -0.6271,6.87873 0.6926,5.08566 -2.7419,7.46724 -3.2464,2.87421 -2.2055,-6.96122 0.6688,-8.17366 2.3805,-6.27461 1.1503,-4.64641 z m 5.0103,42.45204 -87.2613,18.86314 -56.1405,7.91861 -10.0175,-0.56277 -3.8778,2.88957 -11.0087,0.33103 -12.5732,1.46651 -16.3724,2.42193 15.7041,-8.4168 -0.02,-3.1124 2.2801,-3.21919 15.8307,-17.25215 5.92,6.71619 5.6746,1.44597 3.8151,-1.71048 3.3559,-1.96674 3.8049,2.01528 5.8712,-2.14164 2.8151,-6.83451 3.9014,0.81003 4.2829,-3.19687 2.6989,0.7404 4.2408,-5.51486 0.5224,-3.12466 -1.4455,-1.91336 1.5041,-2.79994 7.9114,-18.41573 0.9252,-8.60262 1.8433,-0.78531 3.2678,3.66431 5.9038,-0.45176 2.8938,-11.36044 4.191,-0.84129 1.5746,-4.11161 3.8698,-3.52032 4.1577,-8.54278 0.1274,-7.60133 14.7322,5.73423 c 1.0213,0.51063 1.2494,-7.57372 1.2494,-7.57372 l 5.4788,2.39749 0.1024,4.40724 8.6764,1.94924 3.1994,1.7643 2.4899,3.08353 -0.9818,5.47301 -2.9212,3.88647 0.1648,3.0886 0.8835,2.77937 7.4681,1.90264 6.6769,0.0598 4.6032,1.43796 2.9153,0.46395 1.0722,4.63269 4.7857,0.6038 1.3021,1.80003 -0.6593,7.03512 2.0621,1.65382 -0.7184,2.89559 1.8442,1.18465 -0.3328,2.0769 -4.041,-0.14235 0.1335,2.42328 3.4215,2.31431 0.1824,2.11785 2.6597,2.67807 0.7376,3.78619 -3.8295,2.07197 2.3583,2.24145 8.7015,-2.52875 5.4115,9.0179 z"
     sodipodi:nodetypes="ccccccccccccccccccccccccccccccccccccccccccccccccccccccccccccccccccccccccccccccccccc"
     inkscape:connector-curvature="0" />
  <path
     fill="#d3d3d3" style="fill-opacity:1;stroke:#ffffff;stroke-width:1.125;stroke-miterlimit:4;stroke-opacity:1;stroke-dasharray:none"
     class="location"
     id="West_Virginia"
     d="m 1141.7783,347.655 1.668,7.4168 1.6251,9.04699 3.1955,-3.87051 3.3948,-4.60734 3.8076,-0.92332 2.1824,-2.18241 2.6674,-3.87986 2.1675,0.96996 4.3648,-0.48498 3.8799,-3.15238 3.0103,-2.17989 2.7679,-0.72749 1.9559,1.52471 5.4648,2.73244 2.9099,2.66741 2.0612,1.93992 -1.1426,8.33241 -8.7523,-3.81183 -6.3679,-2.43303 -0.1517,7.76764 -4.1215,8.3051 -3.795,3.63999 -1.7882,4.12408 -3.9653,0.75015 -1.3468,5.40282 -1.5648,5.92451 -5.9524,0.51111 -3.4856,-3.65832 -1.6067,0.83911 -0.949,8.20455 -2.0255,5.30175 -7.4376,16.43246 1.3451,1.74105 -0.3088,2.86281 -4.2131,5.8267 -2.7127,-0.81643 -4.4521,3.23961 -3.8135,-0.85832 -2.9989,6.83336 c 0,0 -4.889,2.14533 -5.8844,2.05158 -0.2407,-0.0226 -3.7036,-1.87365 -3.7036,-1.87365 l -3.5048,2.06905 -3.6147,1.5666 -5.617,-1.33368 -1.6821,-1.75242 -3.2884,-4.53504 -4.7138,-2.98218 -2.5674,-5.43486 -6.4273,-5.20228 -0.97,-3.39488 -3.8798,-2.18242 -1.2125,-2.4249 -0.3637,-7.88097 3.2736,-0.1212 2.9099,-1.21245 0.2425,-4.12235 2.4249,-2.18242 0.2425,-7.51722 1.4549,-5.81979 1.94,-0.96996 1.9399,1.69743 0.7275,2.6674 2.6674,-1.45495 0.7274,-2.4249 -1.6974,-2.66741 0,-3.63736 1.4549,-1.93994 3.3949,-5.0923 1.9399,-2.18241 3.1524,0.72747 3.3949,-2.42493 4.6073,-5.09231 3.3949,-5.81979 0.485,-8.48716 0.7275,-7.51724 0,-7.03224 -1.6975,-4.60732 1.455,-2.18244 1.9252,-1.93992 5.2369,29.74068 6.9465,-1.12673 18.6425,-2.69947 z"
     sodipodi:nodetypes="ccccccccccccccccccccccccccccccccccccccccscccccccccccccccccccccccccccccccccccccccccc"
     inkscape:connector-curvature="0" />
  <path
     fill="#d3d3d3" style="fill-opacity:1;stroke:#ffffff;stroke-width:1.125;stroke-miterlimit:4;stroke-opacity:1;stroke-dasharray:none"
     class="location"
     id="Ohio"
     d="m 1102.9875,279.19652 -9.1404,6.08002 -5.8197,3.39488 -5.0923,5.57728 -6.0623,5.81978 -4.8498,1.21245 -4.3649,0.72747 -8.2446,3.87985 -3.1524,0.24249 -5.0923,-4.60732 -7.7597,0.96997 -3.8799,-2.18242 -3.5716,-2.02625 -7.3388,1.05512 -15.277,2.42491 -16.81026,3.2771 1.93993,21.94542 2.66743,20.61175 3.8798,35.1612 0.8487,7.24676 6.1836,-0.19353 3.6373,-1.21247 5.0457,2.25471 3.1058,6.54725 7.7084,-0.0257 2.8376,3.17805 2.6417,-0.0979 3.8076,-2.01219 3.7563,0.55725 8.1319,0.72402 2.5905,-3.19902 3.5184,-1.93992 3.1058,-1.02128 0.9699,4.12236 2.6675,1.45494 5.2135,3.51611 3.2736,-0.1212 1.9997,-0.73872 0.2771,-4.1423 2.378,-2.18244 0.1488,-7.18908 c 0,0 1.5359,-6.16359 1.5359,-6.16359 l 1.949,-0.90192 1.982,1.72161 0.8072,2.54553 2.5787,-1.55613 0.6585,-2.19112 -1.6751,-2.85459 0.1,-3.47165 1.1235,-1.60846 3.2292,-4.95972 1.5753,-2.31501 3.1524,0.72747 3.3949,-2.42492 4.6073,-5.0923 4.1572,-6.1181 0.4805,-7.58326 0.7275,-7.51724 -0.2652,-7.96032 -1.4322,-4.34217 0.5268,-1.78467 2.7066,-2.62516 -3.4332,-13.571 -4.3648,-29.04265 z"
     sodipodi:nodetypes="cccccccccccccccccccccccccccccccccccccccccccccccccccccccccccccccc"
     inkscape:connector-curvature="0" />
  <path
     fill="#d3d3d3" style="fill-opacity:1;stroke:#ffffff;stroke-width:1.125;stroke-miterlimit:4;stroke-opacity:1;stroke-dasharray:none"
     class="location"
     id="Indiana"
     d="m 929.3543,439.16102 0.0979,-4.28787 0.72749,-6.78977 3.39486,-4.36482 2.66742,-5.8198 3.87984,-6.30476 -0.72747,-8.72968 -2.66739,-4.12235 -0.48498,-4.84981 1.21245,-8.24471 -0.72747,-10.42711 -1.93995,-24.00662 -1.93992,-23.03664 -1.4557,-17.58003 4.60658,1.33427 2.18243,1.45494 1.69743,-0.48498 3.15239,-2.90988 4.24435,-2.42549 7.6392,-0.24306 32.9788,-3.39489 8.3636,-0.79974 2.25471,23.93432 6.37703,55.26232 0.8977,8.6574 -0.5573,3.39488 1.842,2.69305 0.1446,2.05883 -3.7819,2.39926 -5.30917,2.32697 -4.8032,0.82542 -0.89769,7.30039 -6.86204,4.96871 -4.19463,6.01566 0.48498,3.56509 -0.872,2.3013 -4.98971,0 -2.37829,-2.4249 -3.73997,1.8933 -4.02444,2.25471 0.24251,4.58168 -1.79069,0.38704 -0.70182,-1.52721 -3.25032,-2.25471 -4.87548,2.01222 -2.32696,4.50938 -2.15676,-1.21245 -2.18243,-2.39927 -6.69651,0.72749 -8.38925,1.45494 -4.36483,2.32698 z"
     inkscape:connector-curvature="0" />
  <path
     fill="#d3d3d3" style="fill-opacity:1;stroke:#ffffff;stroke-width:1.125;stroke-miterlimit:4;stroke-opacity:1;stroke-dasharray:none"
     class="location"
     id="Illinois"
     d="m 929.31217,439.7177 0.0468,-4.84457 0.85109,-6.96894 3.49879,-4.37379 2.79998,-6.11364 3.34953,-5.99299 -0.55725,-7.8786 -3.00782,-5.31386 -0.1446,-5.02002 1.04225,-7.90426 -1.23812,-10.76756 -1.59951,-23.66617 -1.93992,-22.52601 -1.38342,-17.4588 -0.40876,-1.38209 -1.21245,-3.87985 -1.93992,-5.57729 -2.42492,-2.6674 -2.18241,-3.87984 -0.35035,-8.23344 -68.69465,3.89737 0.34293,3.55793 3.42935,1.0288 1.37172,1.71467 0.68587,2.74347 5.82987,5.14401 1.02882,3.42934 -1.02882,5.14401 -2.74347,5.48694 -1.02879,3.77226 -3.42934,2.74349 -2.74347,1.0288 -7.88748,2.0576 -1.02881,2.74347 -1.0288,3.08641 1.0288,2.05761 2.74347,2.40054 -0.34293,6.1728 -2.74348,2.40054 -1.02879,2.40054 0,4.11521 -2.74347,0.68586 -2.40054,1.71468 -0.34293,2.05761 0.34293,3.0864 -2.57201,1.97185 -1.5432,4.20096 0.68586,5.48693 3.42935,10.97389 10.97389,11.31683 8.2304,5.48694 -0.34293,6.51574 1.37175,2.05761 9.60214,0.68586 4.11521,2.05761 -1.02879,5.48694 -3.42935,8.91629 -1.02881,4.80108 3.42933,5.82987 9.60216,7.88748 6.85869,1.0288 3.08639,7.54455 3.08641,4.80107 -1.37173,4.45813 2.40054,6.17282 2.74347,3.08641 2.12104,-1.32103 1.36149,-3.11219 3.31962,-2.6208 3.19721,-0.9216 3.90379,1.7697 5.44049,2.06355 1.78342,-0.44734 0.29981,-3.38768 -1.93095,-3.61768 0.45633,-3.56508 2.7576,-2.02118 4.53381,-1.21543 1.89135,-0.68778 -0.91892,-2.08032 -1.18705,-3.53156 2.1489,-1.47144 1.7362,-4.82104 z"
     sodipodi:nodetypes="ccccccccccccccccccccccccccccccccccccccccccccccccccccccccccccccccccccccccccccccccccc"
     inkscape:connector-curvature="0" />
  <path
     fill="#d3d3d3" style="fill-opacity:1;stroke:#ffffff;stroke-width:1.125;stroke-miterlimit:4;stroke-opacity:1;stroke-dasharray:none"
     class="location"
     id="Connecticut"
     d="m 1311.1025,257.49836 -5.5162,-22.31822 -7.0782,1.38047 -31.8432,7.11463 1.5003,4.83851 2.1824,10.91211 0.2652,13.45038 -1.83,3.2623 2.8812,2.89851 6.4073,-5.85846 5.3348,-4.84981 2.9098,-3.15239 1.2125,0.96996 4.1223,-2.18241 7.7597,-1.69743 11.6921,-4.76815 z"
     sodipodi:nodetypes="cccccccccccccccc"
     inkscape:connector-curvature="0" />
  <path
     fill="#d3d3d3" style="fill-opacity:1;stroke:#ffffff;stroke-width:1.125;stroke-miterlimit:4;stroke-opacity:1;stroke-dasharray:none"
     class="location"
     id="Wisconsin"
     d="m 922.59883,285.25703 -0.10005,-4.73613 -1.76867,-6.78975 -0.96996,-9.21464 -1.69743,-3.63736 1.45494,-4.60733 1.21245,-4.36483 2.18243,-3.87984 -0.96998,-5.09231 -0.96996,-5.33479 0.72747,-2.66741 2.9099,-3.63736 0.24249,-4.12235 -1.21245,-1.93992 0.96996,-3.87985 -0.67878,-6.25607 4.12234,-8.48716 4.36484,-10.18461 0.24249,-3.39488 -0.48498,-1.45494 -1.21247,0.72747 -6.30475,9.45714 -4.12235,6.06227 -2.90988,2.6674 -1.21245,3.39486 -2.93242,1.21245 -1.69743,2.9099 -2.18243,-0.48498 -0.24249,-2.66741 1.93994,-3.63735 3.15237,-7.03224 2.6674,-2.4249 1.48625,-3.53677 -3.84068,-2.85201 -2.96223,-15.55049 -5.3212,-2.01297 -2.91939,-3.46249 -18.19457,-4.08246 -4.31383,-1.51808 -12.31968,-3.25093 -11.87688,-1.73813 -5.64774,-7.696 -1.1256,0.83101 -1.79687,-0.24249 -0.96997,-1.69743 -2.00102,0.44483 -1.69744,0.24249 -2.66739,1.45494 -1.45496,-0.96996 0.96998,-2.9099 2.90988,-4.60733 1.69743,-1.69743 -2.90988,-2.18241 -3.15239,1.21245 -4.36483,2.90988 -11.15457,4.84982 -4.36484,0.96996 -4.36482,-0.72747 -1.47259,-1.31737 -3.17505,4.25277 -0.34293,4.1152 0,12.68855 -1.71468,2.40055 -7.88748,5.82986 -3.42933,8.91628 0.68586,0.34293 3.77227,3.08642 1.02879,4.80108 -2.74347,4.80106 0,5.82989 0.68588,9.94507 4.45813,4.45815 5.14403,0 2.74347,4.80108 5.14399,0.68586 5.82989,8.57336 10.63095,6.17281 3.0864,4.11521 1.37175,11.14536 1.02879,4.97253 3.42934,2.40054 0.34293,2.05761 -3.0864,5.14399 0.34293,4.8011 3.77228,5.82987 3.77227,1.71466 4.45814,0.68586 2.01351,2.07018 67.94754,-4.00417 z"
     sodipodi:nodetypes="ccccccccccccccccccccccccccccccccccccccccccccccccccccccccccccccccccccccccccccccccccccccccc"
     inkscape:connector-curvature="0" />
  <path
     fill="#d3d3d3" style="fill-opacity:1;stroke:#ffffff;stroke-width:1.125;stroke-miterlimit:4;stroke-opacity:1;stroke-dasharray:none"
     class="location"
     id="North_Carolina"
     d="m 1252.4723,430.67735 3.1275,7.37602 5.3348,9.69963 3.6374,3.63737 0.9699,3.39487 -3.6373,0.24249 1.2124,0.96996 -0.485,6.30476 -3.8798,1.93992 -0.97,3.15238 -1.9399,4.36484 -5.5773,2.4249 -3.6374,-0.48498 -2.1824,-0.24249 -2.4249,-1.93992 0.485,1.93992 0,1.45495 2.9099,0 1.2124,1.93992 -2.9098,9.45714 6.3047,0 0.97,2.4249 3.3948,-3.39486 1.94,-0.72748 -2.9099,5.33479 -4.6073,7.27473 -1.94,0 -1.6974,-0.72747 -4.1223,0.96996 -7.7597,3.63737 -9.6997,8.00218 -5.0923,7.03223 -2.9099,9.69963 -0.7274,3.63736 -7.0323,0.72747 -8.1797,2.00499 -14.9196,-12.30379 -18.9143,-11.39708 -4.3648,-1.21246 -18.9143,2.18242 -6.4147,1.12523 -2.4249,-4.84983 -4.4556,-3.17505 -24.734,0.72747 -10.9122,1.21245 -13.5794,6.78976 -9.2147,3.87984 -31.7663,3.87987 0.7501,-6.08149 2.6674,-2.18241 4.1224,-0.96998 0.9699,-5.5773 6.3048,-4.12233 5.8198,-2.18244 6.3048,-5.33479 6.5472,-3.15239 0.97,-4.60734 5.8198,-5.81977 0.9699,-0.24249 c 0,0 0,1.69744 1.2125,1.69744 1.2124,0 2.9099,0.48498 2.9099,0.48498 l 3.3948,-5.33481 3.1524,-0.96997 3.3949,0.48499 2.4249,-5.33479 4.3649,-3.87987 0.7274,-3.15239 0.2813,-5.47228 6.4147,-0.0337 10.7979,-1.28369 23.6359,-3.37864 22.704,-3.12986 32.4607,-7.07902 29.975,-6.38786 16.7654,-3.60871 7.575,-1.73532 z m 6.4057,49.80985 3.8799,-3.75862 4.7285,-3.87987 2.3037,-0.96996 0.2425,-3.03114 -0.97,-9.21468 -2.1824,-3.51612 -0.97,-2.78865 1.0913,-0.36375 4.1223,8.24472 0.6062,6.6685 -0.2424,5.09234 -5.0924,2.30365 -4.2436,3.63738 -1.6974,1.81869 -1.5762,-0.24249 z"
     sodipodi:nodetypes="cccccccccccccccccccccccccccccccccccccccccccccccccccccccccccscccccccccccccccccccccccccccccccc"
     inkscape:connector-curvature="0" />
  <path
     fill="#d3d3d3" style="fill-opacity:1;stroke:#ffffff;stroke-width:1.125;stroke-miterlimit:4;stroke-opacity:1;stroke-dasharray:none"
     class="location"
     id="District_of_Columbia"
     d="m 1208.7292,365.4698 -2.7874,-2.73626 -1.849,-1.02943 2.1645,-3.03371 4.3337,2.92275 -1.8618,3.87665 z"
     sodipodi:nodetypes="cccccc"
     inkscape:connector-curvature="0" />
  <path
     fill="#d3d3d3" style="fill-opacity:1;stroke:#ffffff;stroke-width:1.125;stroke-miterlimit:4;stroke-opacity:1;stroke-dasharray:none"
     class="location"
     id="Massachusetts"
     d="m 1349.4352,249.08495 3.2579,-1.02882 0.6859,-2.57201 1.5432,0.17147 1.5432,3.42936 -1.8861,0.68586 -5.8299,0.17148 0.6858,-0.85734 z m -14.0603,1.20027 3.4294,-3.94376 2.4005,0 2.7435,2.22908 -3.6008,1.5432 -3.2579,1.5432 -1.7147,-1.37172 z m -52.1987,-32.98229 26.4703,-6.96102 3.3949,-0.96996 2.8712,-4.19356 5.6051,-2.49497 4.3339,6.61926 -3.6374,7.75971 -0.485,2.18241 2.9099,3.87986 1.6975,-1.21245 2.6674,0 3.3948,3.87984 5.8198,8.97216 5.3348,0.72747 3.3949,-1.45494 2.6674,-2.66741 -1.2125,-4.12233 -3.1524,-2.42491 -2.1824,1.21245 -1.4549,-1.93992 0.7274,-0.72747 3.1524,-0.24249 2.6674,1.21245 2.9099,3.63736 1.4549,4.36484 0.485,3.63735 -6.3047,2.18242 -5.8198,2.90988 -5.8198,6.78975 -2.9099,2.18241 0,-1.45494 3.6374,-2.18242 0.7275,-2.66739 -1.2125,-4.60733 -4.3648,2.18241 -1.2125,2.18243 0.7275,3.39486 -3.0995,1.50064 -4.1208,-6.79069 -5.0923,-6.54726 -3.1058,-2.71871 -9.7999,2.8143 -7.6385,1.57619 -31.0127,6.88831 -1.0016,-7.15177 0.9699,-15.88316 6.4339,-1.33371 10.1846,-1.93995 z"
     sodipodi:nodetypes="ccccccccccccccccccccccccccccccccccccccccccccccccccccccccccccccc"
     inkscape:connector-curvature="0" />
  <path
     fill="#d3d3d3" style="fill-opacity:1;stroke:#ffffff;stroke-width:1.125;stroke-miterlimit:4;stroke-opacity:1;stroke-dasharray:none"
     class="location"
     id="Tennessee"
     d="m 1045.0168,466.5852 -77.83962,7.51724 -23.63934,2.66739 -6.9318,0.76906 -5.80253,-0.0415 -0.33145,6.15125 -12.27807,0.39601 -10.42712,0.96996 -12.13624,-0.18579 -2.12067,10.60929 -2.54435,8.22008 -4.93975,4.12626 -2.02311,6.57159 -0.48498,3.87985 -6.06228,3.39486 2.18241,5.33481 -1.45494,6.54726 -1.45257,1.18448 162.23781,-15.61133 0.6049,-5.93241 2.7161,-2.23558 4.2512,-1.12418 1.0079,-5.57547 6.1479,-4.05744 6.0704,-2.24104 6.1254,-5.3555 6.6541,-3.03819 0.7819,-4.60102 6.0969,-5.97749 0.8262,-0.17125 c 0,0 0.047,1.69743 1.2594,1.69743 1.2124,0 2.9098,0.53185 2.9098,0.53185 l 3.3949,-5.38168 3.1055,-0.96996 3.4127,0.44281 2.3975,-5.29929 4.4328,-3.96586 0.6325,-2.90867 0.4635,-5.56672 -3.2198,-0.29966 -3.9026,3.0425 -10.4899,0.0436 -27.539,3.58023 -12.0916,2.8623 z"
     sodipodi:nodetypes="ccccccccccccccccccccccccccccccsccccccccccccc"
     inkscape:connector-curvature="0" />
  <path
     fill="#d3d3d3" style="fill-opacity:1;stroke:#ffffff;stroke-width:1.125;stroke-miterlimit:4;stroke-opacity:1;stroke-dasharray:none"
     class="location"
     id="Arkansas"
     d="m 890.73715,503.78348 -5.96982,1.07505 -7.66823,-0.95105 0.63105,-2.4031 4.46963,-3.85004 1.41507,-5.48437 -2.74347,-4.45815 -117.62636,3.77227 2.40054,10.28804 -1e-5,12.34563 2.05762,16.46098 0.34293,56.7554 3.42935,2.91493 4.45813,-2.05759 4.11522,1.71466 1.02051,9.85995 83.43189,-1.7109 1.71845,-3.13555 -0.42993,-5.32427 -2.73845,-4.45815 2.39804,-2.22781 -2.39804,-3.76725 1.0263,-3.76475 2.05259,-8.40814 3.77728,-3.09395 -1.0288,-3.42684 5.48695,-8.05768 4.11521,-2.05259 -0.17022,-2.24037 -0.51816,-2.73846 4.28542,-8.39809 3.60456,-1.88489 0.5762,-5.14144 2.656,-1.86255 -4.71528,-0.72641 -2.01219,-6.01566 4.20612,-3.56506 0.82539,-3.0288 1.91922,-6.06992 1.59929,-4.88308 z"
     sodipodi:nodetypes="cccccccccccccccccccccccccccccccccccccccc"
     inkscape:connector-curvature="0" />
  <path
     fill="#d3d3d3" style="fill-opacity:1;stroke:#ffffff;stroke-width:1.125;stroke-miterlimit:4;stroke-opacity:1;stroke-dasharray:none"
     class="location"
     id="Missouri"
     d="m 837.66032,361.37378 -3.7798,-4.63088 -1.71468,-3.42934 -96.53585,3.60081 -3.42939,0.17146 1.88615,3.77228 -0.34293,3.42933 3.77226,5.82988 4.6296,6.17282 4.62961,4.1152 3.24185,0.34293 2.24509,1.37175 0,4.45814 -2.74345,2.40054 -0.68589,3.42933 3.08641,5.14402 3.7723,4.45814 3.77225,2.74347 2.0576,17.48962 0.47121,54.10832 0.34293,7.03012 0.68586,8.07527 33.64948,-1.30023 34.80905,-1.02881 31.20699,-1.20151 17.48211,-0.34545 3.2541,5.139 -1.02629,4.96125 -4.63087,3.60456 -0.85859,2.75601 8.06774,0.68589 5.84244,-1.02882 2.57577,-8.24045 0.97713,-8.78518 3.14704,-3.83274 3.89405,-2.23034 0.0771,-4.57536 1.52403,-2.90472 -2.54135,-3.81565 -1.99639,1.47639 -2.98893,-3.34086 -1.92755,-7.1385 1.20152,-3.7773 -2.91619,-5.14149 -2.74597,-6.8637 -7.19911,-1.19901 -10.4532,-8.39813 -2.57829,-6.17029 1.19903,-4.80108 3.0889,-9.08651 0.68838,-4.29544 -2.92371,-1.54697 -10.28301,-1.1965 -1.54195,-2.56824 -0.1677,-6.34554 -8.23041,-5.14652 -10.46327,-11.65725 -3.42933,-10.97389 -0.34543,-6.33798 1.20151,-3.43185 z"
     sodipodi:nodetypes="cccccccccccccccccccccccccccccccccccccccccccccccccccccccccccc"
     inkscape:connector-curvature="0" />
  <path
     fill="#d3d3d3" style="fill-opacity:1;stroke:#ffffff;stroke-width:1.125;stroke-miterlimit:4;stroke-opacity:1;stroke-dasharray:none"
     class="location"
     id="Georgia"
     d="m 1008.4384,522.53174 0,3.27363 0.2425,3.1524 0.97,5.0923 5.0923,11.88206 3.6374,14.79196 2.1824,9.21467 2.4249,7.27471 2.1824,10.42712 3.1524,9.45715 3.8799,5.09232 0.7274,5.09231 2.9099,1.21245 0.2425,3.1524 -2.6674,7.27471 -0.7275,4.84983 -0.2425,2.9099 2.425,6.54726 0.4849,8.0022 -1.2124,3.63736 0.9699,1.21247 2.1825,1.21245 0.307,4.82713 3.3495,5.0243 3.3757,3.24307 11.8821,0.24249 16.2296,-0.96996 32.2686,-1.93992 8.1686,-1.01155 6.8658,0.0416 0.2425,4.36483 3.8799,1.21245 0.485,-6.54726 -2.425,-6.78975 1.6975,-2.4249 8.7297,1.21245 7.4661,0.47667 -1.1631,-9.44818 3.3948,-15.03443 2.1824,-6.30477 -0.7274,-3.87984 5.0016,-9.36645 -0.7655,-2.02752 -2.8701,1.05687 -3.8798,-1.93995 -0.97,-3.15238 -1.9399,-5.3348 -3.3949,-3.15238 -3.8799,-0.96996 -2.4249,-7.27473 -4.3875,-9.5025 -6.3047,-2.9099 -3.1524,-2.90989 -1.94,-3.87986 -3.1524,-2.90989 -3.3948,-1.93994 -3.3949,-4.36483 -4.6073,-3.39486 -6.7898,-2.66742 -0.7275,-2.18241 -3.6373,-4.36484 -0.7275,-2.18242 -5.0923,-7.45572 -5.2798,0.1488 -5.6324,-3.53421 -2.1274,-1.93992 -0.485,-2.66741 1.3062,-2.90988 3.34,-1.66521 -0.9509,-3.14583 -62.8047,7.4834 z"
     sodipodi:nodetypes="ccccccccccccccccccccccccccccccccccccccccccccccccccccccccccccccccccccccc"
     inkscape:connector-curvature="0" />
  <path
     fill="#d3d3d3" style="fill-opacity:1;stroke:#ffffff;stroke-width:1.125;stroke-miterlimit:4;stroke-opacity:1;stroke-dasharray:none"
     class="location"
     id="South_Carolina"
     d="m 1147.4149,601.45136 -2.6656,1.45425 -3.8798,-1.93994 -0.97,-3.15238 -1.9399,-5.3348 -3.3949,-3.1524 -3.8799,-0.96996 -2.4249,-7.27471 -4.1223,-8.97218 -6.3048,-2.90991 -3.1524,-2.90988 -1.9399,-3.87985 -3.1524,-2.90991 -3.3948,-1.93992 -3.3949,-4.36484 -4.6073,-3.39486 -6.7898,-2.66742 -0.7275,-2.18241 -3.6373,-4.36483 -0.7275,-2.18244 -5.0923,-7.7597 -5.0923,0.24249 -6.0623,-3.63738 -1.9399,-1.93992 -0.485,-2.6674 1.2124,-2.90988 3.3949,-1.45497 -0.7662,-3.43362 8.6521,-3.50486 13.6733,-6.8835 11.6621,-1.21246 24.1716,-0.63372 3.9573,2.81614 2.5187,5.03733 6.4535,-0.91497 18.9143,-2.18244 4.3649,1.21247 18.9143,11.39709 15.1621,12.18252 -8.1318,8.18751 -3.8798,9.21465 -0.7275,9.45714 -2.4249,1.21245 -1.6974,4.12234 -3.6374,0.96996 -3.1524,5.3348 -4.1223,4.12234 -3.3949,5.09231 -2.4249,1.21245 -5.3348,5.0923 -4.3648,0.24249 1.4549,4.84982 -7.5172,8.24469 -3.1524,1.93992 z"
     sodipodi:nodetypes="cccccccccccccccccccccccccccccccccccccccccccccccccccccc"
     inkscape:connector-curvature="0" />
  <path
     fill="#d3d3d3" style="fill-opacity:1;stroke:#ffffff;stroke-width:1.125;stroke-miterlimit:4;stroke-opacity:1;stroke-dasharray:none"
     class="location"
     id="Kentucky"
     d="m 1088.9916,432.11009 -3.44,3.60252 -5.3673,5.99106 -7.3868,8.197 -1.8237,2.57366 -0.094,3.15237 -6.5698,3.24613 -8.4872,5.09232 -10.8478,2.69828 -77.80186,7.34829 -23.63934,2.66739 -6.9318,0.76906 -5.80252,-0.0416 -0.34043,6.33042 -12.26911,0.21684 -10.42712,0.96996 -11.98122,-0.0903 1.81167,-1.98012 3.74931,-2.31127 0.34295,-4.8011 1.37173,-2.74347 -2.41023,-3.80835 1.20275,-2.86021 3.39488,-2.66739 3.15238,-0.96998 4.12234,1.93994 5.33481,1.93992 1.69745,-0.48498 0.24249,-3.39488 -1.93994,-3.63736 0.48498,-3.39488 2.9099,-2.18241 3.87987,-0.96997 2.4249,-0.96996 -1.21246,-2.66741 -0.96995,-2.90989 2.25993,-1.4937 c 0.005,-0.0557 1.88094,-5.28344 1.85743,-5.48672 l 4.57983,-2.21802 7.97969,-1.45494 6.74106,-0.72747 2.08866,2.44115 2.2924,1.3062 2.38616,-4.66232 4.78062,-1.92393 3.30763,2.22605 0.61584,1.49856 1.76028,-0.39602 -0.2425,-4.42939 4.6963,-2.62379 3.22214,-1.61022 2.29404,2.49122 4.97722,-0.0663 0.881,-2.35688 -0.55127,-3.39486 3.9008,-5.99775 7.16482,-5.15685 1.05893,-7.25379 4.38753,-0.68386 5.68723,-2.46852 3.6649,-2.56236 -0.2975,-2.3474 -1.7136,-2.18241 0.8487,-4.49236 6.2773,-0.17625 3.4498,-1.1187 5.0211,2.14365 3.0812,6.54726 7.6984,0.0162 3.0765,3.31228 2.4232,-0.22155 3.9026,-1.91725 7.8555,0.86005 3.8624,0.32627 2.5314,-3.08436 3.9269,-2.13882 2.8227,-1.06065 0.9699,4.25494 3.0652,1.58751 3.9641,3.12374 0.1762,8.50986 1.2125,2.35861 3.8846,2.33442 1.1574,3.44177 6.2399,5.15541 2.7079,5.43486 3.6849,2.48778 z"
     sodipodi:nodetypes="ccccccccccccccccccccccccccccccccccccccccccccccccccccccccccccccccccccccccccccccccccccccc"
     inkscape:connector-curvature="0" />
  <path
     fill="#d3d3d3" style="fill-opacity:1;stroke:#ffffff;stroke-width:1.125;stroke-miterlimit:4;stroke-opacity:1;stroke-dasharray:none"
     class="location"
     id="Alabama"
     d="m 946.9597,679.82762 -2.2359,-21.48225 -4.12236,-28.12896 0.24249,-21.09674 1.21245,-46.55827 -0.24249,-24.97659 0.24763,-9.62859 66.72668,-5.42918 -0.2217,3.27363 0.2425,3.1524 0.97,5.09231 5.0923,11.88205 3.6374,14.79197 2.1824,9.21466 2.4249,7.27473 2.1824,10.42712 3.1524,9.45714 3.8799,5.09233 0.7274,5.09229 2.91,1.21247 0.2424,3.15238 -2.6674,7.27473 -0.7275,4.84983 -0.2424,2.90988 2.4249,6.54728 0.485,8.00218 -1.2125,3.63738 0.97,1.21245 2.1824,1.21245 0.4922,4.33323 -8.3965,-0.53032 -10.1846,0.96997 -38.31362,4.36482 -15.61734,2.11016 -0.33207,4.3161 2.66741,2.6674 3.87985,2.90988 0.87129,11.90316 -8.31309,3.85935 -4.12233,-0.48498 4.12233,-2.90989 0,-1.45494 -4.60731,-8.97216 -3.39487,-0.96996 -2.18243,6.54724 -1.93992,4.12235 -0.96996,-0.24249 -4.12234,0 z"
     sodipodi:nodetypes="cccccccccccccccccccccccccccccccccccccccccccccccc"
     inkscape:connector-curvature="0" />
  <path
     fill="#d3d3d3" style="fill-opacity:1;stroke:#ffffff;stroke-width:1.125;stroke-miterlimit:4;stroke-opacity:1;stroke-dasharray:none"
     class="location"
     id="Louisiana"
     d="m 911.95058,677.94591 -4.92691,-4.74921 1.51486,-8.25034 -0.99202,-1.33962 -13.89251,1.50984 -37.54248,0.68838 -1.02628,-3.59202 1.36922,-12.68355 4.97382,-8.91878 7.54703,-13.03653 -0.8611,-3.59703 1.88488,-1.02127 0.6884,-2.92874 -3.42936,-3.08389 -0.16769,-2.91368 -2.74599,-6.51826 -0.22057,-9.5079 -83.21069,1.38595 0.0429,14.36036 1.02881,14.06029 1.0288,5.82987 3.77228,6.17282 1.37173,7.54456 6.51575,8.2304 0.34293,4.80108 1.0288,1.0288 -1.0288,12.68856 -4.45814,7.54454 2.40054,3.08641 -1.02882,3.77226 -1.02879,10.9739 -2.05761,4.80106 0.18369,5.42468 7.02972,-2.28023 18.17003,0.31052 15.5194,5.33479 9.69963,1.69745 5.57729,-2.18243 4.84981,1.69745 4.84982,1.45494 1.21245,-3.15239 -4.84982,-1.69743 -3.87985,0.72747 -4.12235,-2.4249 c 0,0 0.24251,-1.93993 1.21247,-2.18242 0.96996,-0.24249 4.60732,-1.45494 4.60732,-1.45494 l 2.66739,2.18241 2.66741,-1.45494 4.84981,0.96996 2.18241,3.63736 0.48498,3.39488 6.78974,0.48498 2.6674,2.66739 -1.21245,2.42491 -1.93993,1.21245 2.42491,2.4249 12.60951,5.3348 5.3348,-1.93992 1.45495,-3.63737 3.87984,-0.96996 2.66741,-2.18241 1.93992,1.45494 1.21245,4.36484 -3.39486,1.21245 0.96996,0.96996 5.0923,-1.93992 3.39488,-5.09231 1.21245,-0.72747 -3.15239,-0.48498 1.21245,-2.42491 -0.24249,-2.18241 3.15239,-0.72747 1.69743,-1.93994 0.96996,1.21245 c 0,0 -0.24249,4.60733 0.96997,4.60733 1.21245,0 6.30476,0.96997 6.30476,0.96997 l 6.06226,2.90988 1.45494,2.18243 4.36484,0 1.69744,1.45494 3.39486,-4.60733 0,-2.18242 -1.93992,0 -5.0923,-4.12233 -8.72967,-1.21247 -4.84982,-3.39486 1.69745,-4.12234 3.39486,0.48498 0.24249,-0.96996 -2.66739,-1.45494 0,-0.72749 4.84981,0 2.66739,-4.60731 -1.93992,-2.90989 -0.48498,-4.12235 -2.18242,0.24249 -2.90988,3.15239 -0.96996,3.87985 -4.60733,-0.96997 -1.45495,-2.66739 2.6674,-2.9099 2.855,-5.1684 -1.59165,-3.6184 -1.74846,-5.972 z"
     sodipodi:nodetypes="ccccccccccccccccccccccccccccccccccccccccccccscccccccccccccccccccccccccccccsccccccccccccccccccccccccccccc"
     inkscape:connector-curvature="0" />
  <path
     fill="#d3d3d3" style="fill-opacity:1;stroke:#ffffff;stroke-width:1.125;stroke-miterlimit:4;stroke-opacity:1;stroke-dasharray:none"
     class="location"
     id="Mississippi"
     d="m 947.33822,678.22091 -0.38139,1.88422 -7.75971,0 -2.18241,-1.21245 -3.15238,-0.48498 -10.18461,2.90988 -2.66739,-1.21245 -3.87986,6.30476 -1.65381,1.16703 -1.68574,-3.73197 -1.71468,-5.82989 -5.144,-4.80106 1.71465,-8.31683 -1.02879,-1.37173 -2.74347,0.34293 -11.87688,1.31005 -36.81975,0.56006 -1.15461,-3.33804 1.31006,-12.5652 4.67526,-8.50922 7.8406,-13.71735 -0.66861,-3.6489 1.85529,-0.98437 0.65381,-2.87921 -3.47622,-3.11847 -0.17268,-3.21222 -2.75358,-6.18163 -0.1635,-8.94416 1.99129,-3.72145 -0.33495,-5.12363 -2.65423,-4.62388 2.28963,-2.22332 -2.35592,-3.74931 0.68588,-2.47831 2.3661,-9.78956 3.72892,-3.05452 -0.9625,-3.55046 5.48695,-7.95379 4.24779,-2.03463 -0.33145,-2.51274 -0.4322,-2.52165 4.31409,-8.35151 3.51858,-1.84726 0.22745,-1.33952 56.01522,-5.82175 0.27729,9.42499 0.24249,24.97659 -1.21245,46.55828 -0.24249,21.09673 4.12236,28.12896 2.22655,20.09294 z"
     sodipodi:nodetypes="ccccccccccccccccccccccccccccccccccccccccccccccccccc"
     inkscape:connector-curvature="0" />
  <path
     fill="#d3d3d3" style="fill-opacity:1;stroke:#ffffff;stroke-width:1.125;stroke-miterlimit:4;stroke-opacity:1;stroke-dasharray:none"
     class="location"
     id="Iowa"
     d="m 853.78731,288.58049 0.39656,4.1793 3.33558,0.86589 1.43091,1.83799 0.75002,2.78304 5.68926,5.03798 1.0288,3.58725 -1.01151,5.1367 -2.37346,4.84797 -1.19901,4.11269 -3.25913,2.40306 -2.57326,0.8586 -8.36853,2.7903 -2.08719,5.77303 1.09296,2.05761 2.76076,2.52389 -0.42439,6.05443 -2.64473,2.30679 -1.15711,2.46471 0.19083,4.16448 -2.82947,0.68586 -2.43817,1.65737 -0.41819,2.02894 0.41819,3.17238 -2.32653,1.67411 -3.7058,-4.69992 -1.89385,-3.67481 -98.60373,3.77228 -1.37705,0.24816 -3.0786,-6.77394 -0.34293,-9.94511 -2.40054,-6.17281 -1.02879,-7.88747 -3.42934,-5.48695 -1.37172,-7.20161 -4.11522,-11.31682 -1.71467,-8.05896 -2.05761,-3.25787 -2.40054,-4.11519 2.93097,-7.26574 2.05761,-8.57336 -4.1152,-3.08641 -0.68588,-4.11521 1.37175,-3.77227 2.57201,0 123.981,-1.90422 1.25139,6.27468 3.37827,2.34145 0.38506,2.13464 -3.04431,5.08396 0.28562,4.80828 3.77229,5.6973 3.79018,1.94043 4.61892,0.75458 0.98751,1.24854 z"
     sodipodi:nodetypes="ccccccccccccccccccccccccccccccccccccccccccccccccccccccc"
     inkscape:connector-curvature="0" />
  <path
     fill="#d3d3d3" style="fill-opacity:1;stroke:#ffffff;stroke-width:1.125;stroke-miterlimit:4;stroke-opacity:1;stroke-dasharray:none"
     class="location"
     id="Minnesota"
     d="m 712.85671,182.44062 -0.68588,-12.68856 -2.74346,-10.97388 -2.74348,-20.23309 -0.68587,-14.74617 -2.74347,-5.14401 -2.40054,-7.54454 0,-15.432034 1.02879,-5.82988 -2.73139,-8.177501 45.19862,0.0529 0.48499,-12.367026 0.96996,-0.242491 3.39487,0.727473 2.90988,1.212453 1.21245,8.244684 2.18243,9.214647 2.4249,2.424907 7.27473,0 0.48498,2.182416 9.45714,0.484982 0,3.152379 7.27471,0 0.48498,-1.939926 1.69743,-1.697435 3.39487,-0.969963 1.93992,1.454945 4.36484,0 5.81978,3.87985 8.0022,3.63736 3.63736,0.72747 0.72747,-1.45494 2.18241,-0.727473 0.72747,4.364833 3.87985,1.93993 0.72747,-0.72748 1.93994,0.24249 0,3.15238 3.87984,1.45495 4.60732,0 2.42492,-1.21246 4.84981,-4.84981 3.87984,-0.72747 1.21247,2.6674 0.72747,1.93992 1.45494,0 1.45494,-1.21245 13.33699,-0.48498 2.66739,4.60732 0.96998,0 1.07041,-1.62642 6.65987,-0.556 -0.91815,3.41919 -5.90808,2.75569 -13.86867,6.09169 -7.16211,3.01035 -4.60733,3.87985 -3.63736,5.33479 -3.39486,5.81978 -2.66741,1.21246 -6.78973,7.5172 -1.93993,0.24249 -6.49167,4.13569 -3.69432,4.80766 -0.34293,4.78709 0.1416,12.06502 -2.06407,2.53313 -7.6223,5.63995 -3.34512,8.97362 4.30762,3.35056 1.01984,4.84047 -2.78286,4.8584 0.25618,5.62203 0.55329,10.0956 4.54238,4.50298 4.9935,0 2.83666,4.6989 5.06876,0.75491 5.78874,8.5072 10.63093,6.17513 3.21473,4.31267 1.00672,9.65927 -121.81725,1.71718 -0.50688,-53.51527 -0.68586,-4.45813 -6.17281,-5.14401 -1.71468,-2.74347 0,-2.40056 3.0864,-2.40052 2.05761,-2.05761 0.34294,-4.80108 z"
     sodipodi:nodetypes="ccccccccccccccccccccccccccccccccccccccccccccccccccccccccccccccccccccccccccccccccccccccccccc"
     inkscape:connector-curvature="0" />
  <path
     fill="#d3d3d3" style="fill-opacity:1;stroke:#ffffff;stroke-width:1.125;stroke-miterlimit:4;stroke-opacity:1;stroke-dasharray:none"
     class="location"
     id="Oklahoma"
     d="m 570.51469,470.43623 -25.02627,-1.90997 -1.32033,16.42865 30.69807,1.73532 48.08332,1.9554 -3.5019,36.62797 -0.68587,26.74886 0.34294,2.40054 6.51575,5.48694 3.0864,1.71466 1.0288,-0.34293 1.02881,-3.08641 2.05761,2.74348 3.0864,0 0,-2.05761 4.1152,2.05761 -0.68586,5.82987 6.17282,0.34293 3.77226,1.71468 6.17281,1.02881 3.77228,2.74347 3.42934,-3.0864 5.14401,1.02879 3.77228,5.14401 1.37172,0 0,3.42934 3.42934,1.02879 3.42933,-3.42933 2.74349,1.02879 3.77226,0 1.37175,3.77229 9.4516,3.11846 2.05761,-1.02879 2.74347,-6.17282 1.71467,0 1.71468,3.0864 6.17281,1.02881 5.48693,2.05761 4.45815,1.37173 2.74348,-1.37173 1.02879,-3.77228 6.51575,0 3.0864,1.37174 4.1152,-3.08642 1.71468,0 1.02881,2.40054 6.1728,0 2.40054,-3.0864 2.74348,0.68586 3.0864,3.77229 4.80107,2.74346 4.80109,1.37175 2.91162,1.67839 -0.58365,-55.82551 -2.05762,-16.46097 -0.24069,-13.30851 -2.15984,-9.8066 -1.1673,-10.76946 -0.10215,-5.72433 -18.20526,0.47811 -69.61506,-0.68586 -67.55836,-3.08643 -36.4368,-2.05759 z"
     sodipodi:nodetypes="ccccccccccccccccccccccccccccccccccccccccccccccccccccccccccccccc"
     inkscape:connector-curvature="0" />
  <path
     fill="#d3d3d3" style="fill-opacity:1;stroke:#ffffff;stroke-width:1.125;stroke-miterlimit:4;stroke-opacity:1;stroke-dasharray:none"
     class="location"
     id="Texas"
     d="m 542.19634,485.06441 34.03618,1.62891 46.63904,1.71468 -3.50192,35.1837 -0.44514,27.23028 0.10215,3.12268 6.51575,5.72765 2.97997,2.17074 1.77632,-0.83954 0.56006,-2.72658 1.71048,2.70543 3.16746,0.0658 -0.005,-2.17063 2.50491,1.4509 1.70805,0.61331 -0.53891,5.95147 6.13229,0.14025 4.38798,1.79576 5.93211,0.78807 3.57207,3.11847 3.18615,-3.11426 5.58741,0.92237 3.33136,4.83741 1.61244,0.48144 -0.2407,2.9479 3.32041,1.18844 3.49523,-3.0822 3.19953,0.92238 3.34407,0.0532 1.3996,3.65316 9.49214,3.17167 2.38957,-1.15039 2.23421,-6.26657 0.51108,0 1.35973,0.1224 1.84357,3.10295 5.89483,0.99792 5.0055,1.68432 5.13844,1.79395 2.76087,-1.4625 1.07064,-3.77226 6.67983,0.0663 2.71311,1.39617 4.19887,-3.15976 1.65546,0.0663 1.27656,2.4076 6.08208,0 2.27831,-3.04293 2.80105,0.61086 2.91905,3.60492 5.28085,3.06623 4.28814,1.21471 2.27043,1.19976 3.67005,2.99598 4.56456,-1.99168 4.03664,1.70832 0.84571,9.15891 -0.0597,14.55325 1.02879,14.30102 1.05327,5.40766 4.013,6.62979 1.34727,7.4261 6.32393,8.30703 0.29402,4.71741 1.11956,1.17876 -1.09511,12.5701 -4.30815,7.50975 2.29946,3.22931 -0.94512,3.50712 -1.00436,11.10648 -2.25648,5.007 0.44232,5.25352 -8.49732,2.37777 -14.79193,6.78975 -1.45494,2.90988 -3.87986,2.9099 -3.15237,2.18241 -1.93993,1.21245 -8.48717,8.0022 -4.12234,3.15238 -8.0022,4.8498 -8.48717,3.63737 -9.45714,5.0923 -2.66739,2.18243 -8.72967,5.33479 -5.0923,0.96996 -5.81978,8.24468 -6.06226,0.48499 -1.45496,2.90988 3.39488,2.9099 -2.18243,8.24467 -1.93992,6.78975 -1.69743,5.81978 -1.21245,6.78973 1.21245,3.63737 2.66739,10.4271 1.45496,9.21463 2.66739,4.12235 -1.45494,2.18242 -4.60733,2.90988 -8.48718,-5.81977 -8.24467,-1.69743 -1.93994,0.72747 -4.84981,-0.96996 -6.30476,-4.60733 -7.75969,-1.69743 -11.39708,-5.0923 -3.15237,-5.81979 -1.93993,-9.69962 -4.8498,-2.90989 -0.96998,-3.39488 0.96998,-0.96996 0.48498,-5.0923 -1.93994,-0.96996 -0.96996,-1.45494 1.93992,-6.54726 -2.4249,-3.39486 -4.84981,-1.93994 -5.09231,-6.54724 -5.33479,-9.94212 -6.30476,-3.87986 0.24249,-2.90988 -8.0022,-18.4293 -1.21245,-6.30475 -2.66739,-2.90988 -0.24249,-2.18243 -8.97216,-8.00218 -3.87985,-4.60733 0,-1.69744 -3.87986,-3.15237 -10.18461,-1.69745 -11.15457,-0.96996 -4.60732,-3.39486 -6.78974,2.66739 -5.33479,2.18243 -3.39488,4.8498 -1.45494,5.5773 -6.54724,9.21463 -3.63737,3.63737 -3.87985,-1.45494 -2.66739,-1.69745 -2.9099,-0.96996 -5.81977,-3.39486 0,-0.96997 -2.66739,-2.90988 -7.75971,-3.15239 -11.15457,-11.63955 -3.39488,-7.03222 0,-12.12455 -4.84981,-9.69963 -0.72747,-4.12233 -2.4249,-1.45495 -1.69745,-3.15237 -7.5172,-3.15239 -1.93992,-2.4249 -10.66961,-11.88205 -1.93992,-4.84982 -7.03224,-3.39487 -2.18242,-6.54731 -3.87989,-4.3648 -2.90986,-0.72744 -0.97384,-7.01646 12.0028,1.02883 43.55249,4.11518 43.55261,2.40054 3.3503,-29.19273 5.82982,-83.33253 2.40059,-28.12098 2.05761,0.0429 m 148.54402,344.49411 -0.84871,-10.66962 -4.12236,-10.79088 -0.84873,-10.54838 2.30367,-12.36706 4.97109,-10.30589 5.21355,-8.12347 4.7286,-5.33483 0.96996,0.36375 -7.1535,9.94215 -6.54726,9.82092 -3.03116,9.94214 -0.48498,7.75974 1.3337,9.21468 3.87987,10.79088 0.72747,7.75971 0.24249,2.18244 -1.3337,0.36372 z"
     sodipodi:nodetypes="ccccccccccccccccccccccccccccccccccccccccccccccccccccccccccccccccccccccccccccccccccccccccccccccccccccccccccccccccccccccccccccccccccccccccccccccccccccccccccccccccccccccccccccccccccccccccccc"
     inkscape:connector-curvature="0" />
  <path
     fill="#d3d3d3" style="fill-opacity:1;stroke:#ffffff;stroke-width:1.125;stroke-miterlimit:4;stroke-opacity:1;stroke-dasharray:none"
     class="location"
     id="New_Mexico"
     d="m 432.22882,625.22376 -1.16312,-7.12215 12.96567,0.7881 45.25764,4.41885 40.90225,2.53484 3.3229,-28.06121 5.78604,-83.81395 2.60652,-29.08385 2.35755,0.19284 1.2381,-16.74508 -156.00668,-15.95393 -26.24602,180.65222 23.191,2.98372 1.93992,-15.03442 43.84823,4.24402 z"
     sodipodi:nodetypes="ccccccccccccccc"
     inkscape:connector-curvature="0" />
  <path
     fill="#d3d3d3" style="fill-opacity:1;stroke:#ffffff;stroke-width:1.125;stroke-miterlimit:4;stroke-opacity:1;stroke-dasharray:none"
     class="location"
     id="Kansas"
     d="m 761.82088,475.77446 -18.92739,0.30664 -69.13364,-0.68584 -66.83622,-3.08645 -36.94461,-1.88611 5.84069,-96.89246 33.12519,1.01276 60.43369,1.2621 66.45186,1.48137 7.64345,0 3.2766,3.2436 3.02649,-0.0321 2.46045,1.5187 -0.0937,4.51385 -2.74347,2.58805 -0.49838,3.34826 2.76463,5.10349 4.42853,4.79259 3.49103,2.42169 1.95115,16.86123 0.2837,54.1286 z"
     sodipodi:nodetypes="ccccccccccccccccccccc"
     inkscape:connector-curvature="0" />
  <path
     fill="#d3d3d3" style="fill-opacity:1;stroke:#ffffff;stroke-width:1.125;stroke-miterlimit:4;stroke-opacity:1;stroke-dasharray:none"
     class="location"
     id="Nebraska"
     d="m 729.1468,350.25491 4.84591,10.52986 -0.19294,3.45378 5.18883,8.24082 4.07893,4.72851 -7.57421,0 -65.22384,-1.40802 -61.18029,-1.33545 -33.37833,-1.1758 1.60915,-31.99178 -48.47736,-4.38037 6.51575,-66.01479 23.31949,1.54321 30.17818,1.71465 26.74886,1.71468 35.66514,1.71467 16.11789,-0.68586 3.0864,3.42933 7.20162,4.45815 1.71467,1.37173 6.51574,-2.05761 5.82989,-0.68586 4.1152,-0.34294 2.74347,2.05761 6.08614,2.40054 4.45814,2.40054 0.68587,2.40054 1.37174,3.0864 2.74347,0 1.19697,0.0693 1.34135,7.02273 4.38038,12.70188 0.8588,5.63506 3.78523,5.66138 0.85439,7.67121 2.41086,6.36055 0.37851,9.71139 z"
     sodipodi:nodetypes="ccccccccccccccccccccccccccccccccccccc"
     inkscape:connector-curvature="0" />
  <path
     fill="#d3d3d3" style="fill-opacity:1;stroke:#ffffff;stroke-width:1.125;stroke-miterlimit:4;stroke-opacity:1;stroke-dasharray:none"
     class="location"
     id="South_Dakota"
     d="m 714.6703,295.24101 -0.0711,-0.8713 -4.34357,-7.26816 2.79035,-7.06817 2.23909,-8.82981 -4.1728,-3.11956 -0.57774,-4.11519 1.1886,-3.83153 4.78276,0.0228 -0.18462,-7.50921 -0.49995,-45.26137 -0.92659,-5.65137 -6.10848,-4.9964 -1.47394,-2.51544 -0.0937,-2.41323 3.03317,-2.2941 2.29833,-2.4985 0.36744,-3.98519 -87.38563,-2.40052 -82.19882,-5.17364 -7.9879,95.53679 21.8854,1.3557 29.92478,1.80841 26.61457,1.39289 35.66514,1.95537 17.97405,-0.63696 2.94945,3.36777 7.79196,4.88002 1.14584,1.08413 6.81216,-2.17922 9.81081,-0.92236 2.51295,2.0044 6.30677,2.3942 4.41759,2.45374 0.59847,2.22572 1.55923,3.36132 3.35605,-0.30204 z"
     sodipodi:nodetypes="ccccccccccccccccccccccccccccccccccccc"
     inkscape:connector-curvature="0" />
  <path
     fill="#d3d3d3" style="fill-opacity:1;stroke:#ffffff;stroke-width:1.125;stroke-miterlimit:4;stroke-opacity:1;stroke-dasharray:none"
     class="location"
     id="North_Dakota"
     d="m 712.95791,182.58173 -0.92236,-12.65051 -2.51543,-10.22388 -2.83723,-19.53633 -0.68586,-16.48054 -2.60919,-4.61571 -2.63492,-7.7916 0.0468,-15.666403 0.93505,-5.736131 -2.75116,-8.201641 -42.96337,-0.846041 -27.88643,-0.969963 -39.76847,-1.939926 -34.41952,-3.200803 -10.48986,100.765258 82.39836,5.01547 87.10352,2.07875 z"
     sodipodi:nodetypes="ccccccccccccccccc"
     inkscape:connector-curvature="0" />
  <path
     fill="#d3d3d3" style="fill-opacity:1;stroke:#ffffff;stroke-width:1.125;stroke-miterlimit:4;stroke-opacity:1;stroke-dasharray:none"
     class="location"
     id="Wyoming"
     d="M 540.56501,204.11784 380.45112,183.93225 359.3259,316.6193 l 169.89691,20.37823 11.3422,-132.87969 z"
     sodipodi:nodetypes="ccccc"
     inkscape:connector-curvature="0" />
  <path
     fill="#d3d3d3" style="fill-opacity:1;stroke:#ffffff;stroke-width:1.125;stroke-miterlimit:4;stroke-opacity:1;stroke-dasharray:none"
     class="location"
     id="Montana"
     d="M 553.81428,74.657732 507.80279,70.445983 463.91197,65.111188 420.02116,59.04892 371.52301,51.046727 343.87907,45.95442 294.7936,35.55532 l -6.71853,32.021296 5.14401,11.316812 -2.05761,6.858678 2.74347,6.858677 4.80109,2.057608 6.93124,16.154179 4.04264,4.76478 0.68586,1.71468 5.14401,1.71468 0.68588,3.08639 -10.63095,26.40593 0,3.77228 3.77227,4.80106 1.37172,0 7.20161,-4.45813 1.02882,-1.71468 2.40054,1.0288 -0.34295,7.88748 4.11522,18.86138 4.45814,3.77226 1.37172,1.0288 2.74348,3.42933 -0.68587,5.14403 1.0288,5.14399 1.71468,1.37175 3.42934,-3.42934 4.1152,0 4.80108,2.40054 3.77227,-1.37174 6.17282,0 5.48692,2.40054 4.11522,-0.68587 0.68586,-4.45815 4.45814,-1.02879 2.05761,2.05761 0.68587,4.80106 2.13881,1.25196 2.83042,-16.55211 160.11851,20.14338 13.20332,-129.448738 z"
     sodipodi:nodetypes="ccccccccccccccccccccccccccccccccccccccccccccccc"
     inkscape:connector-curvature="0" />
  <path
     fill="#d3d3d3" style="fill-opacity:1;stroke:#ffffff;stroke-width:1.125;stroke-miterlimit:4;stroke-opacity:1;stroke-dasharray:none"
     class="location"
     id="Colorado"
     d="m 570.04862,470.65089 7.35486,-129.48744 -170.08284,-18.96594 -18.32073,131.90874 181.04871,16.54464 z"
     sodipodi:nodetypes="ccccc"
     inkscape:connector-curvature="0" />
  <path
     fill="#d3d3d3" style="fill-opacity:1;stroke:#ffffff;stroke-width:1.125;stroke-miterlimit:4;stroke-opacity:1;stroke-dasharray:none"
     class="location"
     id="Idaho"
     d="m 222.71821,253.92996 13.15631,-52.83108 2.05761,-6.34428 3.77226,-8.91627 -1.88613,-3.42934 -3.77229,0.17146 -1.20026,-1.5432 0.68588,-1.71466 0.51438,-4.62962 6.68722,-8.23042 2.74347,-0.68586 1.71467,-1.71467 0.85734,-4.80108 1.37171,-1.02879 5.82989,-8.74482 5.82989,-6.51575 0.34293,-5.6584 -5.14401,-3.94374 -2.30333,-6.60148 20.43736,-95.01253 20.27639,3.79216 -6.61212,32.074521 5.34053,11.228028 -2.37167,6.99126 2.95478,6.96185 4.70732,1.882786 5.75302,14.334885 5.26903,6.65573 0.76087,1.71467 5.01143,1.71468 0.55328,3.14561 -10.45652,26.06414 -0.24777,3.8489 3.94668,4.98255 1.35762,-0.0734 7.36693,-4.5384 1.01614,-1.64245 2.34346,0.98829 -0.41766,8.03058 4.10888,18.87406 5.87674,4.76687 2.52177,3.24817 -1.07491,6.12579 1.59933,4.21112 1.59244,1.63692 3.71894,-3.52713 4.27224,0.0734 4.37887,2.0028 4.17003,-1.0229 5.69139,-0.24072 5.96835,2.40054 4.11522,-0.44514 0.74511,-4.55596 4.39889,-1.14725 1.89025,2.27387 0.6614,4.41744 2.13651,1.81981 -12.579,80.41299 c 0,0 -131.94899,-25.05091 -142.43909,-27.30652 z"
     sodipodi:nodetypes="ccccccccccccccccccccccccccccccccccccccccccccccccccccccccccc"
     inkscape:connector-curvature="0" />
  <path
     fill="#d3d3d3" style="fill-opacity:1;stroke:#ffffff;stroke-width:1.125;stroke-miterlimit:4;stroke-opacity:1;stroke-dasharray:none"
     class="location"
     id="Utah"
     d="M 389.24753,454.36167 263.62399,436.5533 294.5054,267.74127 l 70.17047,13.11771 -2.2272,15.94563 -3.46743,19.75899 11.71154,1.39256 24.60977,2.70718 12.31646,1.28346 -18.37148,132.41487 z"
     sodipodi:nodetypes="cccccccccc"
     inkscape:connector-curvature="0" />
  <path
     fill="#d3d3d3" style="fill-opacity:1;stroke:#ffffff;stroke-width:1.125;stroke-miterlimit:4;stroke-opacity:1;stroke-dasharray:none"
     class="location"
     id="Arizona"
     d="m 217.3668,563.14767 -3.94052,3.2375 -0.48498,2.18242 0.72747,1.45494 28.37141,16.00439 18.18681,11.39706 22.06664,12.85201 25.21904,15.03443 18.4293,3.63736 37.42674,4.05737 25.88341,-178.69061 -125.60344,-17.87587 -4.63858,24.61869 -2.40944,0.0229 -2.572,3.94374 -3.77228,-0.17148 -1.88613,-4.11521 -4.11521,-0.51439 -1.37175,-1.71467 -1.37171,0 -1.37176,0.85734 -2.91493,1.5432 -0.17145,10.45947 -0.34296,2.57201 -0.85731,18.86136 -2.22908,3.25786 -0.85733,4.97255 4.1152,7.37308 1.88613,8.74482 1.20028,1.5432 1.54321,0.85734 -0.17148,3.42933 -2.40053,2.0576 -5.14401,2.572 -2.91494,2.91495 -2.22907,5.48693 -0.85734,7.37308 -4.28667,4.11521 -3.0864,1.0288 0.20354,1.24482 -0.68588,2.57201 0.68588,1.20027 5.48693,0.85731 -0.85734,4.11522 -2.22907,3.25786 -5.6584,1.37174 z"
     sodipodi:nodetypes="cccccccccccccccccccccccccccccccccccccccccccccc"
     inkscape:connector-curvature="0" />
  <path
     fill="#d3d3d3" style="fill-opacity:1;stroke:#ffffff;stroke-width:1.125;stroke-miterlimit:4;stroke-opacity:1;stroke-dasharray:none"
     class="location"
     id="Nevada"
     d="m 294.58909,267.56732 -35.45836,193.23412 -2.74836,0.52373 -2.35914,3.60927 -3.55941,0.0161 -2.20793,-4.11521 -3.9277,-0.56763 -1.15638,-1.66144 -1.55675,-0.081 -4.16755,2.46643 -0.46539,10.17822 -0.54314,8.66576 -0.52285,12.88921 -2.17065,3.13374 -3.65838,-1.61104 -103.61983,-156.30184 28.48367,-101.37736 139.63815,30.99901 z"
     sodipodi:nodetypes="cccccccccccccccccc"
     inkscape:connector-curvature="0" />
  <path
     fill="#d3d3d3" style="fill-opacity:1;stroke:#ffffff;stroke-width:1.125;stroke-miterlimit:4;stroke-opacity:1;stroke-dasharray:none"
     class="location"
     id="Oregon"
     d="m 223.08276,252.50133 13.27455,-52.20226 1.57618,-6.34428 3.53156,-8.43485 -0.92327,-1.74432 -3.77229,-0.0693 -1.9224,-2.50605 0.68586,-2.1961 0.75512,-4.87032 6.68722,-8.23043 2.74347,-1.64872 1.71467,-1.71467 2.22906,-5.34844 6.07059,-8.50411 5.34844,-5.7936 0.34293,-5.17697 -4.90329,-3.70302 -2.67512,-6.96394 -18.99565,-5.41795 -22.63364,-5.31548 -23.14802,0.17146 -0.68587,-2.05759 -8.23042,3.0864 -6.68721,-0.85734 -3.60081,-2.40054 -1.88613,1.02881 -7.03014,-0.34294 -2.57201,-2.0576 -7.88747,-3.0864 -1.20028,0.17147 -6.51574,-2.22908 -2.91494,2.74347 -9.25922,-0.51439 -8.91627,-6.17281 1.0288,-1.20027 0.34293,-11.659761 -3.42934,-5.829866 -6.17281,-0.857338 -1.0288,-3.772271 -3.5309,-0.699847 -8.69779,3.088176 -3.39487,9.699627 -4.84981,15.03442 -4.84981,9.69963 -7.51722,21.09669 -9.69962,20.36922 -12.12454,18.91428 -2.90989,4.36483 -1.21245,12.852 0.57914,18.12035 168.86752,39.48199 z"
     sodipodi:nodetypes="ccccccccccccccccccccccccccccccccccccccccccccccccccc"
     inkscape:connector-curvature="0" />
  <path
     fill="#d3d3d3" style="fill-opacity:1;stroke:#ffffff;stroke-width:1.125;stroke-miterlimit:4;stroke-opacity:1;stroke-dasharray:none"
     class="location"
     id="Washington"
     d="m 153.10986,0.62169 6.54724,2.18242 14.54945,4.12234 12.852,2.90989 30.06885,8.48717 34.43368,8.48718 22.83468,4.81076 -20.44854,95.37871 -18.6675,-5.28797 -23.26201,-5.35602 -22.84394,0.0499 -0.68335,-2.01705 -8.39884,3.26894 -6.89314,-1.10512 -3.22045,-2.37608 -1.96982,0.98697 -7.10349,-0.21037 -2.54754,-2.02445 -7.89456,-3.16845 -1.10245,0.22038 -6.58369,-2.28668 -2.83995,2.72607 -9.39886,-0.4481 -8.88854,-6.18855 1.16843,-1.39915 0.18184,-11.516173 -3.423,-5.759552 -6.17281,-0.91056 -1.01612,-3.765924 -3.41327,-0.685398 -5.33242,1.845864 -3.39487,-4.82887 0.48498,-4.364834 4.12235,-0.484981 2.4249,-6.062267 -3.87985,-1.697436 0.24249,-5.577286 6.54725,-0.969962 -4.12234,-4.122342 -2.18242,-10.669589 0.96997,-4.36483 0,-11.88205 -2.6674,-4.84981 3.39487,-14.06446 3.15238,0.72747 3.63736,4.36483 4.12234,3.87985 4.84981,2.90989 6.78974,3.15238 4.60733,0.96996 4.36483,2.18242 5.09231,1.45494 3.39487,-0.24249 0,-3.63736 1.93993,-1.69743 3.15237,-1.93993 0.48499,1.69744 0.48499,2.66739 -3.39488,0.72748 -0.48498,3.15238 2.66739,2.18241 1.69745,3.63736 0.96995,2.90989 2.18242,-0.24249 0.24249,-1.93993 -1.45494,-1.93992 -0.72747,-4.84981 1.21245,-2.6674 -0.96996,-2.18242 0,-3.39487 2.6674,-5.33479 -1.69744,-3.87986 -3.63737,-7.27472 0.485,-1.21245 1.69743,-1.21245 z m -14.18504,8.96845 3.03114,-0.24249 0.72748,2.06118 2.30366,-2.42492 3.51614,0 1.21245,2.30366 -2.30368,2.54616 0.96998,1.21247 -1.09121,3.03115 -2.06118,0.60621 c 0,0 -1.33371,0.12126 -1.33371,-0.36372 0,-0.48498 2.18243,-3.87987 2.18243,-3.87987 l -2.54616,-0.84873 -0.48498,2.18244 -1.09122,0.96996 -2.30367,-3.39489 -0.72747,-3.75861 z"
     sodipodi:nodetypes="cccccccccccccccccccccccccccccccccccccccccccccccccccccccccccccccccccccccccccccccccccccscccccc"
     inkscape:connector-curvature="0" />
  <path
     fill="#d3d3d3" style="fill-opacity:1;stroke:#ffffff;stroke-width:1.125;stroke-miterlimit:4;stroke-opacity:1;stroke-dasharray:none"
     class="location"
     id="California"
     d="m 217.04164,562.50123 5.91012,-0.73293 2.22906,-3.01716 0.81681,-4.41163 -5.32728,-0.88518 -0.77125,-1.00233 0.71625,-3.04847 -0.23893,-0.8845 2.88386,-0.92939 4.56417,-4.24902 0.87234,-7.49265 2.06985,-5.10316 2.91494,-3.24939 5.2783,-2.38451 2.48159,-2.40724 0.10305,-3.16326 -1.49,-0.87002 -1.53472,-1.60909 -1.73284,-8.77268 -4.02779,-7.24513 0.84871,-5.2575 -3.62937,-1.54397 -103.59198,-156.2676 28.35317,-101.40223 -100.6198,-23.54694 -2.26034,7.09986 -0.2425,11.15457 -7.7597,17.70181 -4.60732,3.87986 -0.48498,1.69743 -2.6674,1.21246 -2.18242,6.30476 -1.21245,4.84981 4.12234,6.30476 2.42491,6.30475 1.69743,5.3348 -0.48498,9.69963 -2.66739,4.60732 -0.96997,8.72967 -1.45494,5.57729 2.6674,5.81977 4.12234,6.78974 3.39487,7.27473 1.93992,6.06226 -0.48498,4.84982 -0.48498,0.72747 0,3.15237 8.48718,9.45714 -0.72748,3.63736 -0.96996,3.39488 -0.96996,2.90988 0.24249,12.36703 3.15238,5.57729 2.90989,3.87984 4.12234,0.72748 1.45494,4.12233 -1.69743,5.3348 -3.15238,2.42491 -1.69744,0 -1.21245,5.81978 0.72747,4.36483 4.84982,6.54725 2.4249,8.0022 2.18242,7.03222 1.93992,4.60733 5.09231,8.72967 2.18242,3.87984 0.72747,4.36483 2.4249,1.45494 0,3.63737 -1.21245,2.90989 -2.6674,10.66959 -0.72747,2.90988 3.63736,4.12235 6.30476,0.72747 6.78974,2.6674 5.81978,3.15237 4.36483,0 4.36483,4.60733 3.87985,7.27473 1.69744,3.39486 5.81978,3.15238 7.27472,1.21245 2.18241,3.15239 0.96997,4.84981 -2.18242,0.96996 0.48498,1.45494 4.84982,1.21245 4.12234,0.24251 4.73983,-2.53028 5.81978,6.30476 1.21246,3.39487 3.87986,6.30476 0.48498,4.84981 0,14.06447 0.72747,2.66739 15.03442,2.18242 29.58386,4.12233 20.76756,2.02455 z m -132.20282,-65.57502 1.93993,2.30367 -0.24249,1.93994 -4.84983,-0.1212 -0.84872,-1.81869 -0.96996,-2.18243 4.97107,-0.1212 z m 2.9099,0 1.81869,-0.96996 5.33481,3.15239 4.60734,1.81867 -1.3337,0.96999 -6.78977,-0.36375 -2.42491,-2.42491 -1.21246,-2.18243 z m 31.03892,29.70522 2.6674,3.51612 1.21247,1.45496 2.30367,0.84871 0.84871,-2.18242 -1.45495,-2.66741 -4.0011,-3.03114 -1.5762,0.24249 0,1.81869 z m -2.18243,12.97329 2.66741,4.72859 1.81869,2.90991 -2.18243,0.36372 -1.93993,-1.81868 c 0,0 -1.09121,-2.18242 -1.09121,-2.78866 0,-0.60621 0,-3.27363 0,-3.27363 l 0.72747,-0.1212 z"
     sodipodi:nodetypes="ccccccccccccccccccccccccccccccccccccccccccccccccccccccccccccccccccccccccccccccccccccccccccccccccccccccccccccccccccccccccccccccccscc"
     inkscape:connector-curvature="0" />
</svg>
